<svg width="1440" height="664" viewBox="0 0 1440 664" fill="none" xmlns="http://www.w3.org/2000/svg">
<rect y="-0.108704" width="1440" height="664" fill="url(#paint0_linear)"/>
<path d="M-96 341.01C-91.1389 338.445 260.465 160.522 266.074 157.666C340.005 120.013 473.32 60.5038 520.154 71.517C570.541 83.3657 507.774 148.552 527.913 176.532C566.241 229.783 704.241 63.7826 840.241 63.7826C976.241 63.7826 1400.24 63.7826 1464.24 63.7826" stroke="url(#paint1_linear)" stroke-width="20"/>
<path d="M-102 322.01C-97.1389 319.445 254.465 141.522 260.074 138.666C334.005 101.013 467.32 41.5038 514.154 52.517C564.541 64.3657 501.774 129.552 521.913 157.532C560.241 210.783 698.241 44.7826 834.241 44.7826C970.241 44.7826 1394.24 44.7826 1458.24 44.7826" stroke="url(#paint2_linear)" stroke-width="20"/>
<path d="M-104 303.01C-99.1389 300.445 252.465 122.522 258.074 119.666C332.005 82.0128 465.32 22.5038 512.154 33.517C562.541 45.3657 499.774 110.552 519.913 138.532C558.241 191.783 696.241 25.7826 832.241 25.7826C968.241 25.7826 1392.24 25.7826 1456.24 25.7826" stroke="url(#paint3_linear)" stroke-width="20"/>
<path d="M-104 303.01C-99.1389 300.445 252.465 122.522 258.074 119.666C332.005 82.0128 465.32 22.5038 512.154 33.517C562.541 45.3657 499.774 110.552 519.913 138.532C558.241 191.783 696.241 25.7826 832.241 25.7826C968.241 25.7826 1392.24 25.7826 1456.24 25.7826" stroke="url(#paint4_linear)" stroke-width="20"/>
<path d="M-113.241 287.118C-108.379 284.554 243.225 106.631 248.833 103.775C322.765 66.1215 456.08 6.61252 502.914 17.6257C553.3 29.4744 490.533 94.6604 510.672 122.64C549 175.891 687 9.89132 823 9.89132C959 9.89132 1383 9.89132 1447 9.89132" stroke="url(#paint5_linear)" stroke-width="20"/>
<g filter="url(#filter0_d)">
<mask id="path-6-outside-1" maskUnits="userSpaceOnUse" x="83" y="17.8913" width="418" height="307" fill="black">
<rect fill="white" x="83" y="17.8913" width="418" height="307"/>
<path d="M103 226.891C103 198.973 109.185 171.401 121.111 146.158C133.036 120.915 150.406 98.6271 171.972 80.897C193.538 63.1669 218.764 50.4348 245.837 43.6157C272.91 36.7966 301.157 36.06 328.548 41.4588C355.94 46.8576 381.795 58.2577 404.256 74.8397C426.716 91.4217 445.224 112.774 458.449 137.361C471.674 161.948 479.288 189.16 480.743 217.041C482.198 244.921 477.459 272.778 466.865 298.608L292 226.891L103 226.891Z"/>
</mask>
<path d="M103 226.891C103 198.973 109.185 171.401 121.111 146.158C133.036 120.915 150.406 98.6271 171.972 80.897C193.538 63.1669 218.764 50.4348 245.837 43.6157C272.91 36.7966 301.157 36.06 328.548 41.4588C355.94 46.8576 381.795 58.2577 404.256 74.8397C426.716 91.4217 445.224 112.774 458.449 137.361C471.674 161.948 479.288 189.16 480.743 217.041C482.198 244.921 477.459 272.778 466.865 298.608L292 226.891L103 226.891Z" fill="url(#paint6_linear)"/>
<path d="M103 226.891C103 198.973 109.185 171.401 121.111 146.158C133.036 120.915 150.406 98.6271 171.972 80.897C193.538 63.1669 218.764 50.4348 245.837 43.6157C272.91 36.7966 301.157 36.06 328.548 41.4588C355.94 46.8576 381.795 58.2577 404.256 74.8397C426.716 91.4217 445.224 112.774 458.449 137.361C471.674 161.948 479.288 189.16 480.743 217.041C482.198 244.921 477.459 272.778 466.865 298.608L292 226.891L103 226.891Z" stroke="#5C006A" stroke-width="40" mask="url(#path-6-outside-1)"/>
</g>
<g filter="url(#filter1_d)">
<mask id="path-7-outside-2" maskUnits="userSpaceOnUse" x="89" y="23.8913" width="406" height="303" fill="black">
<rect fill="white" x="89" y="23.8913" width="406" height="303"/>
<path d="M121.101 307.603C108.883 281.732 102.697 253.426 103.011 224.817C103.325 196.208 110.13 168.044 122.913 142.448C135.696 116.852 154.124 94.4917 176.806 77.0538C199.488 59.6158 225.833 47.555 253.855 41.7807C281.877 36.0063 310.844 36.6691 338.572 43.7191C366.3 50.7691 392.066 64.0223 413.927 82.4795C435.788 100.937 453.173 124.116 464.772 150.27C476.371 176.424 481.881 204.87 480.886 233.463L292 226.891L121.101 307.603Z"/>
</mask>
<path d="M121.101 307.603C108.883 281.732 102.697 253.426 103.011 224.817C103.325 196.208 110.13 168.044 122.913 142.448C135.696 116.852 154.124 94.4917 176.806 77.0538C199.488 59.6158 225.833 47.555 253.855 41.7807C281.877 36.0063 310.844 36.6691 338.572 43.7191C366.3 50.7691 392.066 64.0223 413.927 82.4795C435.788 100.937 453.173 124.116 464.772 150.27C476.371 176.424 481.881 204.87 480.886 233.463L292 226.891L121.101 307.603Z" fill="url(#paint7_linear)"/>
<path d="M121.101 307.603C108.883 281.732 102.697 253.426 103.011 224.817C103.325 196.208 110.13 168.044 122.913 142.448C135.696 116.852 154.124 94.4917 176.806 77.0538C199.488 59.6158 225.833 47.555 253.855 41.7807C281.877 36.0063 310.844 36.6691 338.572 43.7191C366.3 50.7691 392.066 64.0223 413.927 82.4795C435.788 100.937 453.173 124.116 464.772 150.27C476.371 176.424 481.881 204.87 480.886 233.463L292 226.891L121.101 307.603Z" stroke="#00AEEF" stroke-width="28" mask="url(#path-7-outside-2)"/>
</g>
<g filter="url(#filter2_d)">
<mask id="path-8-outside-3" maskUnits="userSpaceOnUse" x="106" y="60.8913" width="384" height="364" fill="black">
<rect fill="white" x="106" y="60.8913" width="384" height="364"/>
<path d="M402.511 73.5674C426.188 90.6325 445.59 112.949 459.198 138.767C472.806 164.586 480.25 193.205 480.946 222.382C481.643 251.559 475.572 280.501 463.212 306.939C450.851 333.377 432.535 356.594 409.7 374.769C386.865 392.944 360.131 405.584 331.593 411.698C303.056 417.812 273.49 417.233 245.213 410.009C216.936 402.784 190.717 389.109 168.61 370.055C146.502 351.001 129.108 327.086 117.79 300.185L292 226.891L402.511 73.5674Z"/>
</mask>
<path d="M402.511 73.5674C426.188 90.6325 445.59 112.949 459.198 138.767C472.806 164.586 480.25 193.205 480.946 222.382C481.643 251.559 475.572 280.501 463.212 306.939C450.851 333.377 432.535 356.594 409.7 374.769C386.865 392.944 360.131 405.584 331.593 411.698C303.056 417.812 273.49 417.233 245.213 410.009C216.936 402.784 190.717 389.109 168.61 370.055C146.502 351.001 129.108 327.086 117.79 300.185L292 226.891L402.511 73.5674Z" fill="url(#paint8_linear)"/>
<path d="M402.511 73.5674C426.188 90.6325 445.59 112.949 459.198 138.767C472.806 164.586 480.25 193.205 480.946 222.382C481.643 251.559 475.572 280.501 463.212 306.939C450.851 333.377 432.535 356.594 409.7 374.769C386.865 392.944 360.131 405.584 331.593 411.698C303.056 417.812 273.49 417.233 245.213 410.009C216.936 402.784 190.717 389.109 168.61 370.055C146.502 351.001 129.108 327.086 117.79 300.185L292 226.891L402.511 73.5674Z" stroke="#EC008C" stroke-width="18" mask="url(#path-8-outside-3)"/>
</g>
<g filter="url(#filter3_d)">
<mask id="path-9-outside-4" maskUnits="userSpaceOnUse" x="102" y="32.8913" width="374" height="199" fill="black">
<rect fill="white" x="102" y="32.8913" width="374" height="199"/>
<path d="M107.322 186.705C116.095 146.388 137.82 110.05 169.18 83.2377C200.541 56.4254 239.814 40.6119 281.004 38.2114C322.194 35.8109 363.038 46.9553 397.301 69.9432C431.564 92.9311 457.363 126.5 470.76 165.524L292 226.891L107.322 186.705Z"/>
</mask>
<path d="M107.322 186.705C116.095 146.388 137.82 110.05 169.18 83.2377C200.541 56.4254 239.814 40.6119 281.004 38.2114C322.194 35.8109 363.038 46.9553 397.301 69.9432C431.564 92.9311 457.363 126.5 470.76 165.524L292 226.891L107.322 186.705Z" fill="url(#paint9_linear)"/>
<path d="M107.322 186.705C116.095 146.388 137.82 110.05 169.18 83.2377C200.541 56.4254 239.814 40.6119 281.004 38.2114C322.194 35.8109 363.038 46.9553 397.301 69.9432C431.564 92.9311 457.363 126.5 470.76 165.524L292 226.891L107.322 186.705Z" stroke="#FFDD00" stroke-width="8" mask="url(#path-9-outside-4)"/>
</g>
<g filter="url(#filter4_d)">
<circle cx="292" cy="226.891" r="189" fill="url(#paint10_linear)"/>
<circle cx="292" cy="226.891" r="187" stroke="url(#paint11_linear)" stroke-width="4"/>
</g>
<path d="M238.752 246.548L258.242 242.4L271.38 275.565L269.919 239.916L289.117 235.832L286.711 301.376L292.771 329.769L274.012 333.76L267.999 305.449L238.752 246.548Z" fill="#5C006A"/>
<path d="M313.284 230.659C299.513 233.589 290.724 247.084 293.652 260.8L302.389 301.728C305.317 315.444 318.854 324.189 332.625 321.259C346.396 318.329 355.186 304.835 352.257 291.118L343.52 250.19C340.592 236.474 327.055 227.73 313.284 230.659ZM331.015 297.953C331.393 299.724 330.258 301.466 328.48 301.844C326.703 302.223 324.955 301.094 324.576 299.323L314.931 254.14C314.553 252.369 315.688 250.627 317.466 250.248C319.243 249.87 320.991 250.999 321.37 252.77L331.015 297.953Z" fill="#5C006A"/>
<path d="M374.259 217.687L388.733 285.491C389.111 287.261 387.976 289.004 386.198 289.382C384.42 289.76 382.673 288.631 382.294 286.86L367.82 219.057L345.842 223.733L359.825 289.234C362.784 303.095 376.464 311.932 390.38 308.971C404.296 306.01 413.179 292.373 410.22 278.512L396.237 213.011L374.259 217.687Z" fill="#5C006A"/>
<g filter="url(#filter5_d)">
<path d="M216.614 112.718C219.058 112.422 232.141 111.568 233.87 126.938C235.778 143.902 227.502 167.909 216.148 182.941C216.148 182.942 212.256 228.628 215.512 241.588C215.512 241.588 216.512 248.581 220.957 248.042C221.192 248.014 221.437 247.964 221.692 247.892C225.036 246.936 225.652 246.683 232.366 232.222C232.391 232.17 232.664 231.356 234.022 231.128C234.116 231.112 234.213 231.098 234.311 231.086C235.873 230.897 237.842 231.303 237.572 235.432C237.285 239.82 232.239 256.314 218.603 258.362C218.397 258.392 218.193 258.42 217.99 258.445C204.774 260.047 198.494 248.26 196.924 238.93C195.331 229.457 195.235 208.086 195.235 208.083C195.234 208.085 178.23 225.598 164.967 227.383C164.762 227.41 164.559 227.437 164.357 227.461C154.931 228.604 147.388 226.545 142.545 220.461C139.548 216.695 138.09 211.943 138.332 207.14C138.543 202.952 139.314 197.409 141.883 196.639C141.883 196.639 141.969 196.6 142.127 196.581C142.629 196.52 143.855 196.663 145.338 198.921C145.338 198.921 155.81 213.702 169.88 211.996C170.757 211.889 171.651 211.718 172.555 211.476C172.555 211.476 183.864 209.131 195.641 196.081C195.641 196.081 196.241 170.233 197.641 157.867C198.7 148.504 198.23 131.322 204.655 120.886C207.224 116.714 211.419 113.795 216.222 112.773C216.222 112.774 216.361 112.749 216.614 112.718ZM216.79 167.172C216.792 167.168 228.771 142.895 226.606 128.026C226.186 125.14 224.425 119.531 218.813 119.323C218.813 119.324 217.585 164.016 216.79 167.172ZM216.364 110.657C216.069 110.692 215.89 110.723 215.857 110.729C215.834 110.733 215.811 110.738 215.788 110.743C213.116 111.311 210.631 112.39 208.403 113.949C206.161 115.518 204.302 117.487 202.878 119.801C200.505 123.655 198.818 128.629 197.721 135.008C196.795 140.389 196.436 145.844 196.121 150.657C195.952 153.223 195.793 155.647 195.568 157.636C194.982 162.814 194.466 170.852 194.032 181.529C193.864 185.675 193.743 189.396 193.672 191.789C193.671 191.819 193.608 193.973 193.575 195.257C191.158 197.873 188.583 200.225 185.913 202.255C183.627 203.995 181.265 205.503 178.894 206.739C174.922 208.81 172.242 209.417 172.129 209.443C172.087 209.451 172.057 209.459 172.014 209.47C171.227 209.681 170.424 209.838 169.629 209.934C166.782 210.279 163.851 209.883 160.92 208.757C158.508 207.831 156.085 206.412 153.717 204.54C149.774 201.423 147.286 198.058 147.057 197.744C146.235 196.501 145.336 195.601 144.386 195.07C143.348 194.489 142.448 194.45 141.876 194.518C141.596 194.552 141.369 194.615 141.199 194.676C140.131 195.02 139.227 195.772 138.508 196.912C137.982 197.748 137.557 198.781 137.21 200.071C136.713 201.915 136.391 204.259 136.25 207.038C135.979 212.409 137.634 217.635 140.911 221.751C143.54 225.054 146.973 227.376 151.114 228.655C153.081 229.262 155.238 229.64 157.525 229.778C159.728 229.91 162.111 229.825 164.606 229.522C164.816 229.497 165.03 229.469 165.244 229.441C168.524 228.999 172.242 227.651 176.294 225.434C179.452 223.706 182.838 221.439 186.357 218.699C189.065 216.59 191.427 214.532 193.211 212.901C193.338 219.818 193.721 232.453 194.869 239.274C195.31 241.899 196.082 244.554 197.1 246.951C198.276 249.719 199.762 252.141 201.517 254.151C203.55 256.478 205.913 258.21 208.541 259.301C211.488 260.524 214.752 260.929 218.24 260.506C218.462 260.479 218.688 260.449 218.912 260.415C222.434 259.886 225.686 258.453 228.578 256.155C230.954 254.267 233.073 251.81 234.876 248.85C238.088 243.577 239.492 238.016 239.652 235.564C239.731 234.359 239.653 233.345 239.416 232.468C239.159 231.521 238.713 230.743 238.089 230.155C237.499 229.599 236.775 229.234 235.939 229.07C235.36 228.956 234.745 228.941 234.061 229.024C233.935 229.039 233.807 229.058 233.677 229.079C232.718 229.24 231.918 229.616 231.3 230.195C230.928 230.543 230.645 230.943 230.457 231.386C226.497 239.912 225.113 242.441 224.062 243.923C223.428 244.818 223.024 245.129 222.743 245.3C222.354 245.535 221.872 245.679 221.118 245.895C220.975 245.935 220.836 245.964 220.707 245.98C220.257 246.035 219.914 245.939 219.561 245.66C219.179 245.359 218.806 244.849 218.479 244.185C217.818 242.837 217.585 241.357 217.575 241.29C217.565 241.216 217.552 241.153 217.534 241.081C216.251 235.977 215.96 224.371 216.69 207.52C217.176 196.32 217.972 186.205 218.177 183.704C223.786 176.144 228.672 166.439 231.966 156.302C233.664 151.074 234.876 145.931 235.567 141.017C236.299 135.815 236.425 130.999 235.942 126.705C235.611 123.763 234.862 121.161 233.715 118.973C232.682 117 231.314 115.335 229.649 114.024C224.567 110.021 218.196 110.435 216.364 110.657ZM219.688 154.896C219.833 151.598 219.997 147.425 220.183 142.135C220.469 133.991 220.711 125.887 220.826 121.901C221.637 122.3 222.331 122.938 222.92 123.822C224.036 125.493 224.427 127.529 224.543 128.327C225.001 131.473 224.802 135.386 223.951 139.956C223.254 143.7 222.123 147.872 220.588 152.355C220.29 153.226 219.989 154.075 219.688 154.896Z" fill="white"/>
</g>
<path d="M233.87 126.938C231.962 109.974 216.222 112.774 216.222 112.774C211.419 113.795 207.223 116.714 204.655 120.886C198.23 131.323 198.699 148.504 197.64 157.868C196.242 170.233 195.641 196.081 195.64 196.082C183.863 209.131 172.554 211.476 172.554 211.476C157.159 215.605 145.337 198.921 145.337 198.921C143.388 195.953 141.882 196.639 141.882 196.639C139.314 197.409 138.544 202.953 138.332 207.14C138.089 211.943 139.547 216.694 142.545 220.461C147.491 226.676 155.255 228.691 164.966 227.383C178.229 225.597 195.233 208.084 195.234 208.083C195.235 208.085 195.33 229.456 196.924 238.93C198.518 248.403 204.967 260.41 218.603 258.362C232.239 256.313 237.285 239.82 237.572 235.432C237.859 231.043 235.616 230.86 234.022 231.128C232.663 231.356 232.39 232.17 232.366 232.222C225.651 246.683 225.036 246.936 221.691 247.891C216.62 249.34 215.511 241.588 215.511 241.588C212.255 228.628 216.148 182.942 216.148 182.941C227.502 167.909 235.778 143.903 233.87 126.938ZM218.813 119.323C224.425 119.531 226.186 125.14 226.606 128.026C228.771 142.894 216.792 167.168 216.79 167.172C217.584 164.016 218.813 119.324 218.813 119.323Z" fill="white"/>
<g filter="url(#filter6_d)">
<path d="M323.733 78.4174C324.764 78.2924 335.171 77.4469 337.797 93.8251C337.921 94.5993 338.053 95.3726 338.198 96.1432C339.067 100.751 341.609 120.029 326.668 133.554C326.668 133.555 326.638 149.467 326.969 151.592C326.973 151.582 334.978 132.326 341.055 131.592C341.261 131.567 341.465 131.563 341.666 131.582C346.691 132.057 349.077 137.776 349.532 139.63C349.682 140.239 350.255 142.489 345.581 143.056C345.284 143.092 344.965 143.121 344.623 143.142C344.623 143.142 344.483 143.14 344.222 143.171C342.539 143.375 335.849 145.022 329.608 158.222C329.616 158.213 332.602 155.267 337.126 154.718C338.616 154.538 340.273 154.618 342.045 155.149C344.436 155.866 345.962 157.91 346.9 159.828C347.74 161.544 348.224 163.411 348.365 165.316C348.587 168.314 349.228 175.211 347.831 181.12C347.206 183.763 348.664 186.867 350.417 186.891C350.605 186.893 350.798 186.886 350.997 186.862C352.931 186.627 355.412 184.826 358.197 175.483C358.197 175.483 354.181 159.008 354.065 146.528C353.955 134.669 354.016 126.76 360.717 125.948C360.873 125.929 361.033 125.914 361.196 125.903C361.196 125.903 371.036 125.272 371.505 132.06C371.505 132.06 368.3 153.16 368.141 161.3C367.995 168.727 368.397 177.763 372.589 177.254C372.992 177.206 373.43 177.069 373.904 176.834C373.904 176.834 379.594 175.685 380.272 164.814C380.95 153.943 379.034 125.765 379.614 123.326C380.195 120.886 380.412 118.463 386.691 117.493C386.859 117.467 387.024 117.444 387.186 117.424C393.07 116.711 394.875 120.155 394.753 125.164C394.628 130.31 395.451 179.595 391.628 198.236C391.631 198.237 413.124 202.624 419.269 228.254C425.414 253.886 409.548 259.821 406.203 260.777C405.613 260.946 404.86 261.103 404.01 261.206C400.102 261.68 394.133 260.999 392.407 254.927C392.008 253.523 391.861 251.987 397.335 249.621C403.721 246.86 409.109 234.751 405.322 223.115C401.676 211.914 399.144 209.223 390.81 205.297C390.81 205.302 389.279 238.842 348.068 271.073C348.068 271.073 333.307 283.11 318.098 284.954C312.874 285.588 307.595 285.018 302.845 282.344C294.577 277.689 290.524 268.054 292.791 258.861C295.573 247.586 304.129 228.667 330.315 212.561C330.315 212.561 346.226 200.791 373.053 197.54C374.519 197.362 376.023 197.209 377.554 197.086C377.554 197.084 379.791 183.201 379.432 179.804C379.431 179.806 377.035 182.629 371.966 183.525C371.721 183.569 371.48 183.605 371.241 183.634C366.557 184.202 363.268 182.055 361.732 180.583C361.73 180.587 356.736 193.592 347.052 195.226C347.052 195.226 346.957 195.246 346.784 195.267C345.416 195.433 339.149 195.65 336.033 186.374C335.442 184.612 335.12 182.772 335.049 180.914C334.904 177.103 334.524 168.923 333.865 166.704C333.277 164.726 332.836 164.223 332.052 164.318C331.943 164.331 331.826 164.357 331.702 164.39C330.942 164.6 330.276 165.06 329.793 165.682C328.402 167.477 325.732 172.257 325.259 182.857C325.259 182.857 324.391 189.685 325.991 195.745C325.991 195.745 328.039 201.038 324.761 201.736C324.761 201.736 324.718 201.745 324.637 201.755C323.752 201.862 318.346 202.05 314.776 191.365C314.774 191.373 308.518 208.787 294.603 211.809C294.603 211.809 294.327 211.877 293.844 211.936C291.926 212.168 286.761 212.238 282.846 207.179C282.845 207.183 279.518 220.259 269.963 221.927C269.963 221.927 269.498 222.101 268.715 222.196C266.864 222.42 263.239 222.199 259.8 218.177C259.799 218.18 254.295 228.795 247.327 229.973C247.327 229.973 246.881 230.101 246.133 230.192C242.371 230.648 230.973 230.15 230.189 207.594C230.189 207.594 226.99 177.13 233.421 175.152C233.421 175.152 234.115 174.929 235.212 174.796C236.62 174.625 238.69 174.604 240.804 175.399C241.08 175.503 241.359 175.599 241.637 175.694C242.821 176.096 246.122 177.503 246.364 180.748C246.658 184.708 241.499 207.26 243.658 218.807C243.658 218.807 244.552 224.052 247.688 223.672C247.823 223.655 247.962 223.628 248.105 223.591C251.387 222.72 254.965 217.872 255.872 212.039C255.969 211.409 255.975 210.767 255.9 210.133C255.5 206.743 254.07 194.342 253.981 189.489C253.915 185.925 253.882 177.374 255.831 171.381C256.899 168.098 259.765 165.853 263.023 165.459C264.012 165.339 265.037 165.389 266.058 165.633C268.271 166.16 270.696 167.114 271.721 168.832C273.817 172.347 269.947 183.166 269.716 186.385C269.485 189.604 267.638 205.599 268.552 209.306C269.427 212.855 270.473 214.579 272.205 214.369C272.281 214.36 272.359 214.346 272.439 214.329C274.312 213.931 278.541 208.521 279.831 201.664C279.831 201.663 277.233 189.782 277.677 181.826C278.12 173.869 281.227 154.314 295.555 151.205C295.555 151.205 295.809 151.146 296.245 151.093C298.674 150.798 306.749 150.716 308.084 162.314C308.084 162.314 310.012 175.069 304.827 176.294C304.827 176.294 304.689 176.35 304.475 176.376C303.843 176.453 302.542 176.264 302.106 173.581C302.106 173.581 303.295 167.111 302.133 162.239C302.133 162.239 300.858 156.842 298.948 157.065C298.948 157.065 293.173 157.959 292.537 179.06C292.537 179.06 292.506 189.947 293.938 195.797C293.938 195.797 295.346 202.669 298.79 202.251C298.853 202.244 298.916 202.234 298.981 202.221C298.981 202.221 307.221 200.407 312.727 178.33C312.727 178.329 311.421 145.269 311.463 142.883C311.461 142.884 306.411 144.296 299.851 145.092C293.364 145.878 285.4 146.06 279.385 143.674C279.385 143.674 258.124 138.385 252.432 120.031C252.432 120.031 248.363 110.719 257.928 101.065C257.928 101.065 262.02 97.5026 265.454 97.0868C266.755 96.9291 267.962 97.2232 268.815 98.3327C269.374 99.0599 269.637 99.9716 269.589 100.887C269.46 103.356 269.215 110.636 270.494 115.213C270.494 115.213 277.816 139.193 303.733 138.494C303.733 138.494 308.314 137.884 311.594 136.334C311.594 136.331 312.528 106.026 313.196 101.13C313.864 96.234 313.5 80.7695 323.647 78.4278C323.65 78.4284 323.678 78.424 323.733 78.4174ZM326.972 123.799C326.989 123.772 342.553 99.0808 326.679 84.3058L326.972 123.799ZM323.486 270.74C326.042 270.43 329.254 269.179 333.252 266.728C365.391 247.031 376.437 202.753 376.438 202.747C375.305 202.827 374.179 202.936 373.061 203.071C360.713 204.568 349.341 209.319 340.313 214.319C324.848 222.884 314.954 238.898 314.46 256.513C314.227 264.866 316.197 271.623 323.486 270.74ZM323.483 76.3555C323.4 76.3656 323.344 76.374 323.318 76.3781C323.272 76.3858 323.226 76.3945 323.181 76.4051C320.719 76.9736 318.605 78.2295 316.896 80.138C315.503 81.6946 314.363 83.7178 313.509 86.1504C312.027 90.3738 311.634 95.1643 311.375 98.3345C311.292 99.3457 311.221 100.219 311.134 100.853C310.536 105.235 309.747 128.96 309.556 134.94C307.047 135.88 304.143 136.336 303.565 136.421C300.686 136.49 297.913 136.236 295.319 135.666C292.944 135.145 290.664 134.346 288.541 133.292C284.96 131.515 281.745 128.983 278.984 125.766C274.391 120.414 272.615 114.992 272.499 114.627C271.3 110.298 271.566 103.1 271.676 100.994C271.751 99.5673 271.324 98.1734 270.475 97.0691C269.814 96.2093 268.973 95.6036 267.976 95.2673C267.14 94.9853 266.209 94.9041 265.208 95.0255C263.465 95.2368 261.468 96.0664 259.271 97.4923C258.619 97.9155 257.97 98.3776 257.342 98.8663C256.819 99.2734 256.58 99.4797 256.449 99.6075L256.449 99.607C254.084 101.994 252.292 104.576 251.123 107.282C250.172 109.484 249.63 111.766 249.514 114.066C249.431 115.721 249.565 117.342 249.915 118.885C250.027 119.379 250.158 119.848 250.304 120.278C250.366 120.463 250.421 120.617 250.476 120.751C251.868 125.186 254.231 129.26 257.498 132.86C260.106 135.732 263.29 138.306 266.962 140.511C272.708 143.96 277.812 145.408 278.738 145.654C281.678 146.799 285.248 147.471 289.352 147.649C292.613 147.791 296.231 147.625 300.104 147.155C303.933 146.691 307.271 146.018 309.436 145.525C309.533 148.891 309.745 154.811 309.965 160.71C309.257 156.538 307.597 153.403 305.021 151.38C303.535 150.213 301.785 149.452 299.822 149.121C298.249 148.855 296.875 148.926 295.999 149.032C295.525 149.089 295.208 149.156 295.107 149.179C291.368 149.993 288.063 151.865 285.282 154.745C282.985 157.123 281.035 160.204 279.489 163.902C276.472 171.115 275.764 178.762 275.599 181.714C275.189 189.077 277.238 199.43 277.707 201.682C277.179 204.219 276.15 206.804 274.79 209.003C274.204 209.951 273.578 210.79 272.98 211.427C272.427 212.016 272.088 212.234 271.97 212.3C271.894 212.23 271.716 212.032 271.48 211.542C271.174 210.909 270.872 209.99 270.581 208.81C270.431 208.202 270.232 206.336 270.587 200.669C270.824 196.884 271.216 192.796 271.502 189.811C271.642 188.35 271.753 187.196 271.8 186.532C271.858 185.735 272.258 184.07 272.682 182.309C273.246 179.969 273.884 177.317 274.214 174.832C274.65 171.541 274.429 169.298 273.518 167.77C272.366 165.838 270.021 164.44 266.55 163.613C265.308 163.317 264.039 163.245 262.778 163.397C260.768 163.641 258.872 164.447 257.294 165.728C255.685 167.034 254.495 168.769 253.852 170.743C252.409 175.18 251.753 181.501 251.9 189.53C251.991 194.443 253.402 206.73 253.833 210.378C253.888 210.842 253.882 211.295 253.815 211.724C253.434 214.174 252.494 216.58 251.166 218.499C250.035 220.134 248.692 221.288 247.574 221.584C247.526 221.597 247.482 221.606 247.441 221.611C247.352 221.622 247.261 221.633 247.078 221.481C246.945 221.369 246.675 221.09 246.376 220.475C245.911 219.521 245.718 218.469 245.716 218.459C245.714 218.448 245.712 218.438 245.71 218.426C244.312 210.947 246.194 198.163 247.438 189.703C248.174 184.707 248.552 182.034 248.445 180.594C248.299 178.633 247.339 176.885 245.668 175.54C244.411 174.529 243.027 173.971 242.314 173.729C242.065 173.645 241.8 173.553 241.544 173.457C239.017 172.507 236.571 172.54 234.964 172.734C233.773 172.879 232.964 173.12 232.804 173.17C231.483 173.578 230.4 174.586 229.584 176.166C228.984 177.327 228.518 178.799 228.158 180.666C227.598 183.568 227.313 187.42 227.311 192.116C227.307 199.505 228.011 206.761 228.11 207.736C228.475 217.939 231.011 225.117 235.651 229.069C237.422 230.577 239.463 231.582 241.717 232.055C243.629 232.456 245.311 232.385 246.385 232.255C247.063 232.173 247.549 232.062 247.776 232.004C249.677 231.663 251.601 230.744 253.498 229.272C254.95 228.145 256.4 226.684 257.807 224.93C258.79 223.704 259.614 222.509 260.243 221.525C261.47 222.531 262.788 223.275 264.184 223.746C266.149 224.411 267.87 224.391 268.968 224.258C269.671 224.173 270.197 224.033 270.479 223.945C272.985 223.477 275.31 222.31 277.39 220.474C279.023 219.035 280.504 217.183 281.793 214.971C282.607 213.573 283.242 212.203 283.719 211.034C284.069 211.315 284.429 211.578 284.798 211.822C285.945 212.576 287.194 213.153 288.512 213.536C290.8 214.199 292.812 214.153 294.096 213.997C294.605 213.936 294.947 213.862 295.07 213.833C298.558 213.071 301.879 211.43 304.942 208.952C307.344 207.008 309.591 204.549 311.621 201.641C312.885 199.831 313.908 198.065 314.699 196.553C316.063 199.149 317.688 201.085 319.554 202.331C321.99 203.96 324.097 203.912 324.889 203.816C325.032 203.798 325.136 203.779 325.197 203.767C326.487 203.492 327.487 202.762 328.091 201.655C328.72 200.5 328.87 198.995 328.538 197.181C328.361 196.217 328.094 195.423 327.985 195.121C326.545 189.562 327.322 183.179 327.33 183.115C327.337 183.059 327.342 183.003 327.344 182.947C327.802 172.696 330.365 168.344 331.446 166.949C331.516 166.859 331.595 166.776 331.68 166.703C331.736 166.864 331.798 167.058 331.868 167.294C332.278 168.673 332.7 173.923 332.969 180.994C333.048 183.085 333.415 185.117 334.059 187.033C334.856 189.408 335.92 191.42 337.22 193.011C338.347 194.39 339.657 195.466 341.115 196.21C343.742 197.549 346.131 197.438 347.036 197.328C347.218 197.306 347.351 197.283 347.43 197.268C349.979 196.832 352.435 195.69 354.729 193.874C356.502 192.47 358.184 190.659 359.725 188.492C360.953 186.767 361.893 185.099 362.548 183.806C363.124 184.155 363.781 184.496 364.519 184.795C366.714 185.687 369.06 185.989 371.493 185.694C371.769 185.661 372.051 185.619 372.33 185.569C374.053 185.265 375.706 184.717 377.194 183.964C377.071 185.306 376.874 187.074 376.568 189.401C376.27 191.662 375.956 193.781 375.745 195.159C374.762 195.252 373.778 195.359 372.805 195.477C366.57 196.232 360.399 197.507 354.466 199.266C349.715 200.675 345.103 202.396 340.758 204.38C336.88 206.151 333.932 207.812 332.141 208.893C330.615 209.816 329.591 210.518 329.165 210.827C317.33 218.115 307.879 226.694 301.073 236.327C298.358 240.17 296.058 244.197 294.24 248.295C292.764 251.62 291.595 255.008 290.768 258.366C290.155 260.846 289.953 263.391 290.166 265.927C290.374 268.409 290.974 270.828 291.948 273.116C292.927 275.412 294.257 277.519 295.904 279.378C297.597 281.289 299.587 282.895 301.819 284.151C306.539 286.809 312.1 287.772 318.348 287.014C321.993 286.572 325.901 285.537 329.963 283.937C333.176 282.671 336.497 281.049 339.834 279.116C345.366 275.91 349.051 272.952 349.371 272.693C358.9 265.238 367.114 257.086 373.783 248.464C379.139 241.541 383.518 234.299 386.799 226.94C388.091 224.04 389.215 221.113 390.138 218.243C390.879 215.938 391.494 213.662 391.965 211.477C392.213 210.326 392.396 209.32 392.53 208.473C393.455 208.966 394.231 209.425 394.919 209.885C396.262 210.783 397.311 211.709 398.218 212.801C400.059 215.015 401.494 218.086 403.339 223.755C404.17 226.309 404.556 228.99 404.486 231.723C404.421 234.235 403.98 236.689 403.173 239.017C401.712 243.235 399.158 246.566 396.507 247.713C393.593 248.972 391.882 250.123 390.958 251.447C390.46 252.16 390.19 252.936 390.156 253.753C390.128 254.428 390.264 255.011 390.401 255.492C390.9 257.248 391.735 258.751 392.882 259.962C393.899 261.033 395.155 261.87 396.618 262.449C397.826 262.927 399.172 263.229 400.62 263.347C401.802 263.442 403.026 263.415 404.26 263.266C405.151 263.158 406.021 262.987 406.775 262.771C407.678 262.513 409.503 261.899 411.575 260.685C414.091 259.21 416.239 257.301 417.962 255.012C420.211 252.023 421.687 248.433 422.348 244.342C422.725 242.016 422.84 239.496 422.69 236.851C422.53 234.014 422.061 230.957 421.297 227.768C419.832 221.66 417.396 216.2 414.055 211.541C411.371 207.797 408.104 204.564 404.345 201.932C400.129 198.98 396.262 197.456 394.028 196.743C395.235 189.737 396.061 178.749 396.487 164.026C396.868 150.861 396.842 137.679 396.827 130.597C396.822 127.926 396.818 125.996 396.837 125.21C396.878 123.515 396.722 122.077 396.361 120.813C395.927 119.296 395.191 118.061 394.174 117.141C392.454 115.586 390.019 114.987 386.936 115.361C386.752 115.383 386.563 115.409 386.373 115.439C383.195 115.93 381.067 116.821 379.675 118.245C378.329 119.621 377.965 121.202 377.672 122.472C377.644 122.597 377.615 122.722 377.585 122.847C377.291 124.086 377.398 127.754 377.781 137.921C378.13 147.18 378.563 158.704 378.191 164.686C377.893 169.458 376.57 171.978 375.512 173.251C374.483 174.49 373.538 174.781 373.442 174.809C373.282 174.845 373.127 174.9 372.98 174.972C372.666 175.128 372.458 175.177 372.339 175.192C372.198 175.209 372.151 175.194 372.042 175.096C371.801 174.879 370.978 173.883 370.526 170.188C370.251 167.938 370.152 165.043 370.225 161.337C370.379 153.434 373.535 132.578 373.567 132.368C373.567 132.365 373.568 132.362 373.568 132.359C373.589 132.212 373.595 132.062 373.585 131.914C373.51 130.833 373.245 129.827 372.796 128.923C372.383 128.09 371.812 127.341 371.1 126.696C369.981 125.683 368.511 124.921 366.73 124.433C363.906 123.659 361.179 123.822 361.064 123.83C361.061 123.83 361.059 123.83 361.055 123.83C360.857 123.844 360.658 123.863 360.467 123.886C358.342 124.144 356.6 125.004 355.291 126.444C354.143 127.707 353.331 129.4 352.807 131.622C352.389 133.398 352.143 135.534 352.032 138.344C351.937 140.79 351.952 143.507 351.98 146.548C352.007 149.464 352.245 152.825 352.686 156.54C353.037 159.494 353.518 162.681 354.114 166.012C354.927 170.553 355.729 174.099 356.038 175.42C354.903 179.126 353.746 181.796 352.595 183.362C351.617 184.694 350.984 184.771 350.746 184.8C350.695 184.806 350.643 184.81 350.587 184.812C350.463 184.702 350.198 184.387 349.991 183.773C349.75 183.058 349.702 182.264 349.86 181.595C350.464 179.042 350.776 176.028 350.79 172.637C350.801 169.845 350.612 167.365 350.486 165.725C350.471 165.525 350.457 165.337 350.444 165.162C350.281 162.949 349.719 160.848 348.774 158.917C348.142 157.624 347.388 156.511 346.532 155.61C345.401 154.418 344.093 153.594 342.647 153.16C340.751 152.592 338.809 152.423 336.875 152.657C336.219 152.737 335.561 152.864 334.906 153.038C335.249 152.531 335.597 152.046 335.948 151.584C337.225 149.905 338.558 148.517 339.911 147.455C342.249 145.623 343.992 145.292 344.471 145.234C344.532 145.226 344.575 145.223 344.6 145.221C344.667 145.225 344.67 145.221 344.753 145.216C345.127 145.192 345.489 145.159 345.83 145.118C347.092 144.965 348.12 144.696 348.974 144.296C349.851 143.885 350.534 143.334 351.004 142.656C351.455 142.007 351.702 141.241 351.719 140.443C351.731 139.844 351.615 139.37 351.559 139.142L351.557 139.134C351.247 137.872 350.388 135.731 348.987 133.85C347.068 131.273 344.605 129.773 341.865 129.514C341.518 129.481 341.161 129.486 340.805 129.529C340.805 129.529 340.804 129.529 340.803 129.529C338.859 129.765 336.873 131.111 334.733 133.644C333.238 135.413 331.639 137.798 329.981 140.732C329.565 141.469 329.166 142.202 328.788 142.918C328.785 142.555 328.781 142.175 328.778 141.779C328.754 138.752 328.751 135.869 328.751 134.457C332.079 131.299 334.774 127.636 336.768 123.559C338.528 119.961 339.756 116.013 340.42 111.827C341.597 104.4 340.691 98.1147 340.246 95.7574C340.116 95.0696 339.988 94.3293 339.854 93.4951C339.21 89.4742 338.053 86.0797 336.415 83.4068C335.024 81.1345 333.281 79.3655 331.236 78.1484C329.702 77.2355 328.034 76.6505 326.28 76.4107C324.901 76.2223 323.864 76.3093 323.483 76.3555ZM328.99 114.803L328.808 90.1542C329.013 90.4918 329.207 90.8344 329.389 91.1821C330.326 92.9661 330.99 94.9286 331.362 97.0165C332.003 100.61 331.807 104.646 330.779 109.01C330.439 110.453 329.881 112.449 328.99 114.803ZM294.625 179.092C294.751 174.953 295.089 171.319 295.631 168.29C296.068 165.842 296.638 163.786 297.323 162.179C297.935 160.744 298.518 159.952 298.925 159.525C299.097 159.825 299.317 160.279 299.564 160.953C299.905 161.882 300.104 162.709 300.106 162.717C300.106 162.718 300.107 162.72 300.107 162.721C301.145 167.073 300.082 173.076 300.058 173.208C300.015 173.442 300.013 173.681 300.051 173.915C300.325 175.6 300.947 176.848 301.901 177.623C302.7 178.273 303.704 178.563 304.728 178.439C305.019 178.403 305.258 178.341 305.428 178.286C306.71 177.951 308.407 176.994 309.462 174.362C309.876 173.329 310.17 172.088 310.342 170.656C310.485 174.341 310.596 177.178 310.634 178.119C309.427 182.902 307.993 187.065 306.373 190.495C305.083 193.225 303.681 195.484 302.206 197.209C300.968 198.656 299.934 199.425 299.283 199.815C298.963 200.007 298.727 200.113 298.586 200.169C298.56 200.179 298.539 200.187 298.522 200.193C298.451 200.199 298.305 200.186 298.022 199.917C297.776 199.683 297.393 199.213 296.964 198.3C296.305 196.897 295.987 195.396 295.984 195.381C295.979 195.356 295.973 195.33 295.967 195.305C294.643 189.898 294.625 179.687 294.625 179.092ZM298.56 200.188C298.588 200.182 298.615 200.176 298.643 200.171C298.623 200.176 298.603 200.18 298.583 200.184C298.576 200.186 298.568 200.187 298.56 200.188ZM323.236 268.678C321.472 268.892 320.135 268.56 319.149 267.666C317.289 265.978 316.389 262.141 316.545 256.569C316.662 252.408 317.329 248.277 318.531 244.289C319.711 240.371 321.4 236.608 323.551 233.105C325.699 229.608 328.294 226.391 331.264 223.544C334.277 220.656 337.663 218.163 341.325 216.135C346.267 213.398 351.256 211.11 356.154 209.334C361.982 207.22 367.755 205.807 373.311 205.134C373.409 205.122 373.507 205.11 373.605 205.099C373.256 206.248 372.791 207.708 372.201 209.412C370.814 213.424 368.434 219.652 364.978 226.536C361.109 234.242 356.704 241.189 351.887 247.182C349.04 250.723 346.016 253.966 342.898 256.821C339.482 259.949 335.87 262.687 332.161 264.96C328.604 267.14 325.601 268.391 323.236 268.678Z" fill="white"/>
</g>
<path d="M318.224 285.985C312.203 286.715 306.856 285.794 302.333 283.248C300.203 282.049 298.303 280.515 296.687 278.691C295.115 276.916 293.844 274.904 292.909 272.711C291.978 270.524 291.405 268.212 291.206 265.841C291.003 263.416 291.196 260.985 291.781 258.613C292.595 255.315 293.743 251.985 295.195 248.715C296.986 244.68 299.251 240.713 301.927 236.925C308.661 227.394 318.027 218.9 329.767 211.679C330.513 211.143 334.502 208.381 341.192 205.326C345.493 203.361 350.059 201.658 354.763 200.264C360.641 198.521 366.753 197.258 372.93 196.509C374.161 196.36 375.41 196.229 376.654 196.12C377.2 192.637 378.175 185.857 378.39 182.047C377.056 182.968 374.987 184.047 372.149 184.548C371.889 184.594 371.627 184.633 371.368 184.665C367.031 185.191 363.895 183.582 362.134 182.276C361.525 183.586 360.432 185.709 358.859 187.915C357.375 189.997 355.763 191.732 354.069 193.072C351.913 194.776 349.617 195.844 347.242 196.247C347.19 196.257 347.076 196.278 346.91 196.298C346.1 196.396 343.96 196.494 341.59 195.286C340.262 194.609 339.063 193.623 338.028 192.356C336.807 190.862 335.804 188.96 335.046 186.704C334.434 184.881 334.085 182.947 334.009 180.955C333.733 173.695 333.306 168.478 332.867 166.999C332.509 165.796 332.284 165.447 332.193 165.348C332.189 165.348 332.183 165.349 332.178 165.35C332.126 165.356 332.06 165.37 331.98 165.392C331.452 165.538 330.969 165.865 330.619 166.316C329.976 167.148 329.028 168.685 328.173 171.29C327.134 174.459 326.504 178.366 326.301 182.903C326.3 182.931 326.298 182.959 326.294 182.986C326.286 183.053 325.48 189.663 326.986 195.429C327.199 195.999 328.279 199.132 327.173 201.161C326.72 201.993 325.961 202.543 324.978 202.752C324.952 202.758 324.877 202.773 324.763 202.787C323.688 202.917 318.499 203.038 314.721 194.167C313.902 195.925 312.59 198.438 310.748 201.073C308.775 203.896 306.595 206.28 304.271 208.158C301.337 210.529 298.163 212.098 294.836 212.822C294.754 212.842 294.448 212.91 293.969 212.968C292.997 213.086 291.033 213.187 288.802 212.54C286.714 211.934 284.865 210.832 283.285 209.253C282.813 210.582 282.034 212.49 280.879 214.468C279.647 216.58 278.237 218.342 276.69 219.706C274.736 221.427 272.559 222.514 270.219 222.937C269.966 223.021 269.489 223.15 268.841 223.229C266.962 223.456 263.456 223.28 260.009 219.923C259.37 220.994 258.331 222.614 256.991 224.284C255.636 225.974 254.244 227.377 252.856 228.454C251.082 229.831 249.298 230.684 247.553 230.99C247.389 231.033 246.93 231.143 246.259 231.225C244.142 231.481 240.037 231.44 236.328 228.28C231.914 224.52 229.499 217.585 229.15 207.667C229.078 206.967 228.348 199.618 228.352 192.117C228.355 187.486 228.634 183.699 229.181 180.862C229.938 176.936 231.225 174.744 233.114 174.162C233.22 174.129 233.971 173.902 235.088 173.766C236.58 173.585 238.847 173.554 241.175 174.429C241.442 174.529 241.718 174.624 241.977 174.712C242.625 174.932 243.88 175.438 245.012 176.349C246.453 177.509 247.281 179.005 247.405 180.672C247.509 182.065 247.046 185.207 246.406 189.554C245.151 198.082 243.254 210.969 244.685 218.618C244.686 218.624 244.686 218.629 244.688 218.634C244.69 218.645 244.902 219.847 245.453 220.962C246.351 222.782 247.259 222.68 247.562 222.643C247.563 222.643 247.564 222.643 247.565 222.643C247.654 222.632 247.746 222.614 247.84 222.589C249.212 222.225 250.736 220.949 252.023 219.088C253.438 217.043 254.439 214.484 254.844 211.883C254.925 211.361 254.933 210.814 254.867 210.257C254.437 206.621 253.031 194.377 252.941 189.511C252.796 181.598 253.435 175.391 254.843 171.063C256.006 167.486 259.169 164.882 262.902 164.43C264.039 164.292 265.184 164.357 266.305 164.624C269.493 165.383 271.618 166.621 272.621 168.302C273.406 169.619 273.583 171.651 273.179 174.698C272.857 177.129 272.225 179.753 271.668 182.068C271.214 183.951 270.823 185.577 270.759 186.459C270.713 187.111 270.603 188.259 270.463 189.714C269.948 195.084 268.877 206.259 269.567 209.059C270.664 213.512 271.695 213.387 272.082 213.34C272.128 213.334 272.176 213.326 272.225 213.316C272.615 213.233 273.924 212.279 275.479 209.861C277.04 207.432 278.205 204.534 278.77 201.677C278.389 199.888 276.223 189.231 276.639 181.772C276.8 178.873 277.495 171.366 280.449 164.301C281.946 160.723 283.824 157.75 286.031 155.465C288.666 152.735 291.794 150.962 295.328 150.194C295.391 150.179 295.675 150.118 296.122 150.064C297.564 149.889 301.254 149.747 304.374 152.197C306.994 154.255 308.591 157.614 309.119 162.179C309.163 162.473 309.607 165.585 309.442 168.897C309.34 170.952 309.02 172.662 308.493 173.979C307.763 175.801 306.631 176.915 305.129 177.292C305.02 177.329 304.835 177.381 304.602 177.409C303.928 177.491 301.683 177.469 301.079 173.75C301.065 173.661 301.062 173.571 301.071 173.482C301.074 173.454 301.078 173.426 301.083 173.398C301.094 173.335 302.216 167.074 301.12 162.482C301.117 162.469 300.842 161.319 300.374 160.158C299.775 158.676 299.27 158.193 299.091 158.111C298.481 158.378 294.131 160.922 293.582 179.078C293.581 179.517 293.589 189.984 294.953 195.553C294.956 195.566 294.959 195.578 294.962 195.591C294.964 195.606 295.306 197.236 296.032 198.771C296.598 199.966 297.514 201.363 298.667 201.223C298.697 201.219 298.726 201.215 298.756 201.209C298.928 201.159 300.778 200.566 303.202 197.642C304.708 195.826 306.131 193.486 307.433 190.689C309.05 187.213 310.479 183.021 311.682 178.227C311.586 175.885 310.6 150.651 310.444 144.222C308.516 144.696 304.634 145.562 299.98 146.126C296.163 146.589 292.602 146.753 289.398 146.613C285.384 146.439 281.907 145.784 279.064 144.666C278.383 144.489 273.266 143.088 267.481 139.611C263.9 137.459 260.798 134.95 258.262 132.154C255.089 128.655 252.798 124.696 251.454 120.388C251.285 119.975 250.38 117.575 250.556 114.112C250.667 111.937 251.18 109.776 252.083 107.69C253.2 105.105 254.918 102.632 257.191 100.339C257.209 100.32 257.228 100.303 257.247 100.286C257.424 100.132 261.63 96.508 265.333 96.059C267.158 95.8378 268.649 96.4065 269.646 97.7041C270.345 98.6126 270.696 99.7632 270.634 100.944C270.522 103.092 270.252 110.444 271.498 114.923C271.583 115.192 273.441 120.934 278.242 126.504C281.094 129.812 284.417 132.417 288.118 134.246C292.727 136.525 297.953 137.606 303.652 137.461C304.126 137.393 307.733 136.851 310.576 135.656C310.719 131.109 311.548 105.529 312.167 100.995C312.257 100.333 312.33 99.4474 312.414 98.4209C312.684 95.1176 313.055 90.5928 314.494 86.4955C316.273 81.4292 319.274 78.3758 323.417 77.4201L323.417 77.4211C323.49 77.4038 323.556 77.3959 323.608 77.3895C324.207 77.3169 327.362 77.0558 330.703 79.0441C332.602 80.1738 334.225 81.8254 335.528 83.9521C337.094 86.5093 338.204 89.7765 338.827 93.663C338.962 94.507 339.092 95.256 339.223 95.9535C339.658 98.2581 340.544 104.403 339.392 111.669C338.745 115.755 337.547 119.604 335.833 123.108C333.829 127.205 331.098 130.873 327.711 134.013C327.706 136.996 327.722 143.032 327.81 147.203C328.633 145.477 329.691 143.371 330.896 141.239C332.521 138.363 334.082 136.033 335.535 134.314C337.497 131.993 339.263 130.767 340.932 130.564C341.213 130.53 341.494 130.526 341.767 130.552C347.318 131.077 349.986 137.107 350.547 139.386L350.549 139.394C350.643 139.777 350.93 140.945 350.149 142.07C349.394 143.159 347.941 143.82 345.707 144.091C345.386 144.129 345.044 144.161 344.691 144.183C344.664 144.185 344.639 144.185 344.613 144.185C344.603 144.185 344.511 144.186 344.348 144.206C343.648 144.291 341.75 144.698 339.269 146.643C336.816 148.566 334.518 151.397 332.412 155.084C333.673 154.461 335.225 153.907 337.002 153.691C338.792 153.474 340.59 153.631 342.347 154.158C344.601 154.833 346.499 156.637 347.839 159.376C348.725 161.188 349.253 163.162 349.406 165.243C349.419 165.418 349.433 165.607 349.449 165.809C349.693 169.001 350.199 175.643 348.847 181.361C348.496 182.848 348.97 184.465 349.619 185.294C349.896 185.647 350.193 185.852 350.434 185.856C350.592 185.858 350.736 185.851 350.873 185.834C351.44 185.765 352.322 185.498 353.439 183.979C354.686 182.281 355.924 179.415 357.119 175.457C356.59 173.217 353.132 158.146 353.025 146.542C352.964 139.983 352.987 135.417 353.824 131.863C354.306 129.817 355.039 128.274 356.065 127.146C357.201 125.896 358.725 125.147 360.594 124.921C360.767 124.9 360.947 124.883 361.128 124.87C361.24 124.863 363.797 124.71 366.454 125.438C368.076 125.882 369.403 126.566 370.4 127.468C371.699 128.645 372.421 130.166 372.547 131.99C372.552 132.057 372.55 132.124 372.542 132.191C372.541 132.199 372.539 132.209 372.538 132.217C372.506 132.428 369.341 153.366 369.185 161.322C369.111 165.076 369.212 168.019 369.494 170.318C369.936 173.927 370.745 175.33 371.346 175.871C371.679 176.17 372.024 176.279 372.466 176.226C372.756 176.191 373.086 176.083 373.444 175.906C373.522 175.868 373.604 175.839 373.689 175.821C373.764 175.803 374.926 175.509 376.182 174.074C377.395 172.688 378.91 169.945 379.233 164.753C379.609 158.719 379.174 147.167 378.825 137.884C378.489 128.959 378.327 124.247 378.602 123.089C378.632 122.962 378.662 122.835 378.691 122.707C378.968 121.504 379.282 120.14 380.424 118.972C381.65 117.719 383.592 116.923 386.534 116.468C386.713 116.441 386.89 116.416 387.063 116.395C389.832 116.06 391.99 116.571 393.475 117.914C394.346 118.702 394.981 119.774 395.36 121.102C395.688 122.248 395.835 123.623 395.797 125.19C395.778 125.988 395.781 127.924 395.787 130.603C395.815 144.551 395.889 181.142 392.841 197.473C394.722 198.003 399.005 199.464 403.754 202.791C407.415 205.355 410.597 208.505 413.211 212.153C416.472 216.702 418.852 222.038 420.284 228.014C421.731 234.049 422.079 239.488 421.32 244.181C420.686 248.105 419.276 251.54 417.129 254.393C413.372 259.388 408.437 261.221 406.49 261.777C405.788 261.978 404.974 262.137 404.137 262.239L404.136 262.239C402.307 262.46 399.586 262.51 397.006 261.488C395.685 260.965 394.553 260.213 393.642 259.252C392.611 258.165 391.858 256.805 391.406 255.213C391.237 254.617 390.884 253.376 391.815 252.043C392.611 250.903 394.234 249.831 396.922 248.669C398.334 248.059 399.741 246.898 400.991 245.311C402.283 243.673 403.378 241.615 404.159 239.359C405.939 234.22 406 228.565 404.331 223.437C402.442 217.633 400.954 214.466 399.022 212.142C397.184 209.93 394.895 208.46 391.708 206.884C391.341 209.884 390.078 217.039 385.833 226.553C382.584 233.832 378.248 240.999 372.944 247.852C366.328 256.401 358.179 264.486 348.721 271.884C348.48 272.079 344.837 275.019 339.311 278.221C336.019 280.128 332.746 281.727 329.58 282.974C325.602 284.54 321.782 285.554 318.224 285.985ZM373.186 204.103C367.551 204.786 361.701 206.218 355.798 208.358C350.848 210.153 345.809 212.464 340.819 215.227C333.373 219.351 327.095 225.346 322.662 232.564C318.215 239.805 315.74 248.096 315.503 256.541C315.423 259.39 315.614 261.827 316.071 263.784C316.562 265.884 317.361 267.449 318.447 268.434C319.671 269.544 321.278 269.961 323.362 269.709C325.876 269.404 329.021 268.103 332.708 265.844C339.927 261.42 346.662 255.349 352.724 247.801C357.59 241.743 362.036 234.725 365.939 226.943C371.219 216.415 374.072 207.293 375.043 203.904C374.424 203.962 373.804 204.028 373.186 204.103ZM327.984 119.739C329.218 117.21 330.779 113.516 331.773 109.336C332.847 104.818 333.057 100.628 332.397 96.8816C331.731 93.1043 330.168 89.7622 327.741 86.9152L327.984 119.739Z" fill="white"/>
<path d="M162.006 307.694C159.176 306.769 156.757 305.192 154.748 302.965C152.738 300.739 151.405 298.087 150.748 295.01C150.079 291.871 150.184 288.889 151.067 286.064C151.949 283.238 153.474 280.847 155.639 278.89C157.805 276.933 160.433 275.627 163.523 274.969C165.191 274.614 166.871 274.466 168.563 274.524C170.255 274.582 171.751 274.859 173.052 275.354L173.328 282.774C170.927 282.418 168.829 282.429 167.038 282.81C164.567 283.336 162.82 284.456 161.797 286.17C160.774 287.883 160.548 290.078 161.12 292.756C161.678 295.371 162.816 297.26 164.534 298.423C166.252 299.585 168.362 299.901 170.864 299.368C171.822 299.164 172.697 298.882 173.493 298.519C174.288 298.157 175.235 297.602 176.335 296.853L179.189 303.871C176.836 306.012 174.069 307.421 170.887 308.098C167.796 308.755 164.836 308.62 162.006 307.694Z" fill="#5C006A"/>
<path d="M182.948 271.56L197.035 268.563L213.036 298.357L202.146 300.674L199.641 294.837L191.392 296.592L191.349 302.971L180.922 305.189L182.948 271.56ZM197.316 289.398L191.339 276.145L191.153 290.709L197.316 289.398Z" fill="#5C006A"/>
<path d="M209.314 265.95L218.629 263.968L234.981 278.391L231.326 261.267L239.621 259.502L246.4 291.259L237.132 293.231L220.815 279.427L224.342 295.952L216.094 297.707L209.314 265.95Z" fill="#5C006A"/>
<path d="M285.839 384.428C281.86 383.134 278.463 380.904 275.65 377.737C272.836 374.571 270.934 370.813 269.942 366.462C268.99 362.284 269.121 358.222 270.336 354.278C271.552 350.332 273.723 346.94 276.851 344.1C279.979 341.261 283.835 339.321 288.419 338.28C290.927 337.71 293.423 337.438 295.907 337.462C298.391 337.487 300.703 337.8 302.841 338.401L300.842 349.388C297.627 348.851 294.744 348.871 292.193 349.45C288.862 350.207 286.533 351.857 285.202 354.402C283.871 356.946 283.6 359.941 284.386 363.387C284.896 365.626 285.766 367.547 286.995 369.147C288.224 370.749 289.702 371.896 291.429 372.592C293.156 373.287 294.972 373.418 296.875 372.985C297.913 372.749 298.757 372.467 299.411 372.137L297.04 361.735L307.967 357.896L312.576 378.117C308.2 381.468 303.46 383.722 298.358 384.88C293.991 385.871 289.818 385.721 285.839 384.428Z" fill="#5C006A"/>
<path d="M309.98 334.402L341.308 327.287L343.547 337.108L327.98 340.643L329.821 348.719L344.026 345.493L345.881 353.634L331.676 356.86L333.635 365.452L349.202 361.917L351.44 371.737L320.112 378.852L309.98 334.402Z" fill="#5C006A"/>
<path d="M357.751 333.882L348.476 335.988L346.237 326.167L379.901 318.522L382.14 328.343L372.865 330.449L380.757 365.079L365.644 368.512L357.751 333.882Z" fill="#5C006A"/>
<path d="M393.512 339.623C393.021 337.47 393.28 335.667 394.291 334.213C395.301 332.762 396.792 331.267 398.762 329.732C399.878 328.845 400.634 328.175 401.032 327.722C401.43 327.27 401.574 326.807 401.466 326.332C401.152 324.954 399.287 324.652 395.87 325.428C392.843 326.116 390.161 327.315 387.822 329.023L384.675 319.409C386.501 318.043 388.525 316.848 390.747 315.822C392.97 314.797 395.075 314.058 397.064 313.606C400.134 312.909 402.975 312.797 405.583 313.268C408.193 313.741 410.365 314.743 412.101 316.274C413.837 317.805 414.971 319.733 415.501 322.058C415.972 324.126 415.929 325.937 415.374 327.49C414.819 329.044 414.043 330.33 413.047 331.348C412.051 332.367 410.695 333.501 408.979 334.752C407.229 336.056 405.99 337.153 405.26 338.043C404.531 338.934 404.299 339.961 404.564 341.123L404.844 342.35L395.762 344.412C394.556 342.512 393.806 340.915 393.512 339.623ZM398.336 359.592C396.721 358.691 395.688 357.249 395.236 355.268C394.794 353.33 395.116 351.604 396.204 350.088C397.291 348.572 398.915 347.569 401.077 347.078C403.154 346.606 405.025 346.838 406.693 347.773C408.361 348.709 409.407 350.101 409.83 351.954C410.301 354.021 410.031 355.781 409.021 357.234C408.01 358.687 406.359 359.673 404.067 360.193C401.861 360.695 399.951 360.495 398.336 359.592Z" fill="#5C006A"/>
<g filter="url(#filter7_d)">
<path d="M233.87 126.938C231.962 109.974 216.222 112.774 216.222 112.774C211.419 113.795 207.223 116.714 204.655 120.886C198.23 131.323 198.699 148.504 197.64 157.868C196.242 170.233 195.641 196.081 195.64 196.081C183.863 209.131 172.554 211.476 172.554 211.476C157.159 215.605 145.337 198.921 145.337 198.921C143.388 195.953 141.882 196.639 141.882 196.639C139.314 197.409 138.544 202.953 138.332 207.14C138.089 211.943 139.547 216.694 142.545 220.461C147.491 226.676 155.255 228.691 164.966 227.383C178.229 225.597 195.233 208.084 195.234 208.083C195.235 208.085 195.33 229.456 196.924 238.93C198.518 248.403 204.967 260.41 218.603 258.362C232.239 256.313 237.285 239.82 237.572 235.432C237.859 231.043 235.616 230.86 234.022 231.128C232.663 231.356 232.39 232.17 232.366 232.222C225.651 246.683 225.036 246.936 221.691 247.891C216.62 249.34 215.511 241.588 215.511 241.588C212.255 228.628 216.148 182.942 216.148 182.941C227.502 167.909 235.778 143.902 233.87 126.938ZM218.813 119.323C224.425 119.531 226.186 125.14 226.606 128.026C228.771 142.894 216.792 167.168 216.79 167.172C217.584 164.016 218.813 119.324 218.813 119.323Z" fill="#EC008C"/>
</g>
<g filter="url(#filter8_d)">
<path d="M419.27 228.254C413.126 202.624 391.633 198.236 391.629 198.235C395.452 179.595 394.629 130.31 394.755 125.163C394.88 120.017 392.971 116.522 386.692 117.492C380.413 118.462 380.196 120.886 379.615 123.325C379.035 125.765 380.95 153.942 380.273 164.813C379.595 175.684 373.905 176.834 373.905 176.834C368.48 179.511 367.982 169.439 368.141 161.299C368.301 153.159 371.506 132.059 371.506 132.059C371.036 125.272 361.197 125.902 361.197 125.902C354.021 126.393 353.954 134.392 354.066 146.527C354.182 159.007 358.197 175.482 358.197 175.482C355.127 185.787 352.424 186.917 350.418 186.89C348.665 186.866 347.207 183.763 347.832 181.119C349.229 175.211 348.587 168.314 348.366 165.315C348.225 163.411 347.741 161.544 346.901 159.827C345.964 157.91 344.437 155.865 342.046 155.148C334.896 153.005 329.619 158.21 329.609 158.221C336.817 142.974 344.624 143.142 344.624 143.142C350.329 142.781 349.692 140.277 349.533 139.629C349.078 137.775 346.692 132.056 341.667 131.581C335.531 131.001 326.974 151.581 326.97 151.591C326.639 149.467 326.668 133.555 326.668 133.553C341.61 120.028 339.067 100.75 338.198 96.1426C338.053 95.372 337.921 94.5987 337.797 93.8245C335.034 76.5864 323.651 78.4278 323.65 78.4279C313.503 80.7696 313.867 96.2341 313.2 101.13C312.531 106.026 311.597 136.332 311.598 136.334C308.319 137.884 303.737 138.494 303.737 138.494C277.82 139.193 270.498 115.213 270.498 115.213C269.219 110.636 269.464 103.356 269.593 100.887C269.641 99.9716 269.378 99.06 268.819 98.3327C265.712 94.2928 257.932 101.065 257.932 101.065C248.367 110.719 252.435 120.031 252.435 120.031C258.128 138.385 279.388 143.674 279.388 143.674C291.487 148.474 311.462 142.884 311.466 142.883C311.424 145.269 312.73 178.33 312.73 178.33C307.224 200.407 298.984 202.221 298.984 202.221C295.401 202.923 293.941 195.797 293.941 195.797C292.509 189.946 292.541 179.06 292.541 179.06C293.176 157.959 298.951 157.066 298.951 157.066C300.861 156.842 302.136 162.239 302.136 162.239C303.298 167.111 302.11 173.581 302.11 173.581C302.693 177.175 304.83 176.293 304.83 176.293C310.015 175.068 308.087 162.313 308.087 162.313C306.512 148.63 295.558 151.205 295.558 151.205C281.23 154.314 278.124 173.869 277.68 181.826C277.237 189.782 279.834 201.663 279.834 201.663C278.544 208.52 274.315 213.93 272.442 214.329C270.569 214.728 269.468 213.011 268.555 209.305C267.641 205.598 269.489 189.603 269.719 186.384C269.95 183.166 273.821 172.346 271.724 168.831C270.699 167.113 268.274 166.159 266.061 165.632C261.673 164.587 257.225 167.101 255.834 171.38C253.885 177.373 253.918 185.924 253.983 189.488C254.073 194.341 255.502 206.742 255.902 210.132C255.977 210.766 255.972 211.408 255.874 212.038C254.968 217.871 251.389 222.719 248.108 223.59C244.633 224.512 243.66 218.807 243.66 218.807C241.501 207.26 246.66 184.708 246.366 180.748C246.125 177.503 242.824 176.096 241.64 175.694C241.361 175.599 241.082 175.502 240.807 175.399C237.045 173.984 233.423 175.152 233.423 175.152C226.992 177.13 230.192 207.594 230.192 207.594C231.131 234.638 247.329 229.973 247.329 229.973C254.297 228.795 259.801 218.179 259.803 218.176C264.696 223.9 269.965 221.926 269.965 221.926C279.52 220.259 282.847 207.183 282.848 207.178C287.749 213.51 294.606 211.808 294.606 211.808C308.521 208.786 314.776 191.371 314.778 191.365C318.676 203.03 324.763 201.735 324.763 201.735C328.041 201.037 325.993 195.744 325.993 195.744C324.394 189.684 325.261 182.856 325.261 182.856C325.735 172.256 328.404 167.477 329.796 165.681C330.278 165.058 330.945 164.599 331.705 164.39C332.718 164.11 333.197 164.449 333.868 166.702C334.527 168.922 334.907 177.101 335.052 180.913C335.123 182.77 335.444 184.61 336.036 186.372C339.546 196.821 347.054 195.224 347.054 195.224C356.739 193.59 361.733 180.585 361.734 180.582C363.349 182.128 366.898 184.42 371.969 183.524C377.038 182.628 379.433 179.804 379.435 179.802C379.793 183.2 377.556 197.083 377.556 197.085C348.021 199.468 330.318 212.559 330.317 212.559C304.132 228.666 295.575 247.585 292.794 258.859C290.525 268.053 294.579 277.688 302.847 282.343C321.423 292.8 348.07 271.072 348.07 271.072C389.281 238.84 390.812 205.301 390.813 205.296C399.146 209.222 401.679 211.913 405.324 223.114C409.112 234.75 403.723 246.859 397.337 249.619C391.864 251.985 392.011 253.521 392.41 254.926C394.511 262.319 402.9 261.719 406.205 260.775C409.55 259.821 425.415 253.885 419.27 228.254ZM326.679 84.3057C342.56 99.0863 326.978 123.79 326.972 123.799L326.679 84.3057C326.679 84.3058 326.679 84.3057 326.679 84.3057ZM333.253 266.729C317.852 276.168 314.144 267.795 314.461 256.514C314.955 238.899 324.848 222.885 340.313 214.32C350.16 208.867 362.792 203.711 376.439 202.748C376.437 202.753 365.392 247.031 333.253 266.729Z" fill="#EC008C"/>
</g>
<path d="M322.929 291.603L314.931 254.14C314.553 252.369 315.688 250.627 317.466 250.248C319.117 249.897 320.743 250.846 321.268 252.402L330.571 233.069C325.459 230.358 319.395 229.359 313.285 230.659C299.514 233.589 290.724 247.084 293.653 260.8L300.208 291.506L322.929 291.603Z" fill="#5C006A"/>
<path d="M374.259 217.687L388.733 285.491C389.111 287.261 387.976 289.004 386.198 289.382C384.42 289.76 382.673 288.631 382.294 286.86L367.82 219.057L345.842 223.733L359.825 289.234C362.784 303.095 376.464 311.932 390.38 308.971C404.296 306.01 413.179 292.373 410.22 278.512L386.985 274.562L381.227 246.127L398.735 232.027L396.237 213.011L374.259 217.687Z" fill="#5C006A"/>
<path d="M195.089 76.6157L205.005 74.5704L207.496 86.6463L216.883 84.7101L214.392 72.6343L224.353 70.5799L230.607 100.902L220.646 102.956L218.192 91.0565L208.805 92.9927L211.259 104.892L201.343 106.937L195.089 76.6157Z" fill="#5C006A"/>
<path d="M251.199 97.3895C248.026 98.044 245.066 97.95 242.319 97.1075C239.602 96.2589 237.307 94.7871 235.435 92.692C233.587 90.5615 232.348 87.9684 231.717 84.9127C231.081 81.8277 231.19 78.9411 232.045 76.253C232.929 73.5589 234.454 71.2993 236.62 69.4742C238.809 67.6136 241.49 66.356 244.664 65.7015C247.837 65.047 250.782 65.1441 253.499 65.9927C256.24 66.8058 258.535 68.2776 260.383 70.4081C262.255 72.5032 263.512 75.108 264.155 78.2224C264.785 81.2781 264.658 84.153 263.774 86.8471C262.913 89.5058 261.388 91.7654 259.199 93.626C257.01 95.4866 254.343 96.7411 251.199 97.3895ZM249.545 89.3684C251.396 88.9866 252.761 87.9547 253.639 86.2726C254.547 84.5844 254.758 82.5651 254.273 80.2145C253.952 78.6573 253.388 77.3339 252.581 76.2444C251.798 75.1195 250.852 74.3191 249.743 73.8433C248.628 73.3382 247.453 73.2128 246.219 73.4674C245.015 73.7158 244 74.2926 243.176 75.1978C242.346 76.0735 241.794 77.1829 241.519 78.526C241.239 79.8398 241.259 81.2752 241.58 82.8325C242.065 85.183 243.044 86.9569 244.516 88.1542C245.988 89.3515 247.664 89.7562 249.545 89.3684Z" fill="#5C006A"/>
<path d="M262.787 62.6527L272.704 60.6074L279.559 79.3643L279.585 64.564L289.853 62.446L295.777 76.0192L294.652 56.0806L304.568 54.0353L303.946 85.7751L293.678 87.8931L286.568 72.359L286.185 89.4384L275.916 91.5564L262.787 62.6527Z" fill="#5C006A"/>
<path d="M977.762 44.6231C977.621 45.3066 977.626 45.813 977.78 46.1425C977.932 46.472 978.186 46.6371 978.538 46.6371C979.196 46.6371 979.82 46.5083 980.408 46.2489L980.302 49.3619C979.879 49.6184 979.267 49.8271 978.468 49.991C977.668 50.1535 976.88 50.2352 976.104 50.2352C975.093 50.2352 974.323 50.0411 973.794 49.6534C973.265 49.2653 973 48.5421 973 47.4839C973 46.9433 973.071 46.3199 973.212 45.6143L977.551 25.1199H981.89L977.762 44.6231Z" fill="#0BA3F7"/>
<path d="M982.206 44.0974C982.206 42.2399 982.471 40.5468 983 39.0179C983.529 37.4896 984.234 36.1844 985.116 35.1024C985.998 34.0209 987.021 33.1799 988.185 32.5803C989.349 31.9808 990.566 31.6809 991.836 31.6809C992.965 31.6809 993.917 31.8574 994.693 32.21C995.469 32.5631 996.098 33.0335 996.58 33.621C997.062 34.2093 997.41 34.8793 997.621 35.6315C997.832 36.3846 997.938 37.1604 997.938 37.9598C997.938 39.794 997.679 41.4696 997.162 42.9864C996.645 44.5029 995.951 45.8029 995.081 46.8841C994.211 47.9661 993.2 48.8069 992.048 49.4061C990.895 50.006 989.684 50.3059 988.414 50.3059C987.308 50.3059 986.369 50.1233 985.592 49.759C984.816 49.3946 984.175 48.9185 983.67 48.3304C983.164 47.743 982.793 47.0782 982.559 46.3372C982.324 45.5961 982.206 44.8502 982.206 44.0974ZM986.686 43.5129C986.686 45.6424 987.45 46.7072 988.979 46.7072C989.543 46.7072 990.096 46.4594 990.637 45.9622C991.178 45.465 991.66 44.8146 992.083 44.01C992.507 43.2052 992.842 42.294 993.089 41.2766C993.335 40.2593 993.459 39.2416 993.459 38.2243C993.459 37.278 993.3 36.5505 992.982 36.0418C992.665 35.5329 992.071 35.2784 991.201 35.2784C990.637 35.2784 990.084 35.5153 989.543 35.9883C989.002 36.4616 988.52 37.083 988.097 37.8516C987.674 38.6211 987.333 39.5024 987.074 40.4962C986.815 41.4903 986.686 42.4955 986.686 43.5129Z" fill="#0BA3F7"/>
<path d="M1000.34 32.1746H1002.63L1003.34 28.8589L1007.96 27.5537L1006.97 32.1746H1011.1L1010.28 35.7727H1006.19L1004.46 43.7964C1004.32 44.4359 1004.25 44.9561 1004.25 45.3587C1004.25 45.8794 1004.37 46.2342 1004.61 46.4237C1004.84 46.6135 1005.19 46.7075 1005.66 46.7075C1006.11 46.7075 1006.52 46.6581 1006.88 46.558C1007.25 46.4588 1007.63 46.2969 1008.03 46.0726V49.3179C1007.77 49.4588 1007.46 49.5945 1007.09 49.7236C1006.73 49.8524 1006.33 49.958 1005.91 50.0411C1005.49 50.1233 1005.05 50.1877 1004.61 50.2352C1004.16 50.282 1003.75 50.3059 1003.37 50.3059C1002.17 50.3059 1001.25 50.0284 1000.6 49.4749C999.955 48.9211 999.632 48.0786 999.632 46.9462C999.632 46.711 999.649 46.4634 999.685 46.204C999.72 45.945 999.761 45.6735 999.808 45.3903L1001.85 35.7727H999.49L1000.34 32.1746Z" fill="#0BA3F7"/>
<path d="M1011.17 32.1746H1013.46L1014.16 28.8589L1018.78 27.5537L1017.8 32.1746H1021.92L1021.11 35.7727H1017.02L1015.29 43.7964C1015.15 44.4359 1015.08 44.9561 1015.08 45.3587C1015.08 45.8794 1015.2 46.2342 1015.43 46.4237C1015.67 46.6135 1016.02 46.7075 1016.49 46.7075C1016.94 46.7075 1017.34 46.6581 1017.71 46.558C1018.07 46.4588 1018.46 46.2969 1018.86 46.0726V49.3179C1018.6 49.4588 1018.29 49.5945 1017.92 49.7236C1017.56 49.8524 1017.16 49.958 1016.74 50.0411C1016.32 50.1233 1015.88 50.1877 1015.43 50.2352C1014.99 50.282 1014.58 50.3059 1014.2 50.3059C1013 50.3059 1012.08 50.0284 1011.43 49.4749C1010.78 48.9211 1010.46 48.0786 1010.46 46.9462C1010.46 46.711 1010.48 46.4634 1010.51 46.204C1010.55 45.945 1010.59 45.6735 1010.64 45.3903L1012.68 35.7727H1010.32L1011.17 32.1746Z" fill="#0BA3F7"/>
<path d="M1020.94 44.0974C1020.94 42.2399 1021.2 40.5468 1021.73 39.0179C1022.26 37.4896 1022.97 36.1844 1023.85 35.1024C1024.73 34.0209 1025.75 33.1799 1026.92 32.5803C1028.08 31.9808 1029.3 31.6809 1030.57 31.6809C1031.7 31.6809 1032.65 31.8574 1033.42 32.21C1034.2 32.5631 1034.83 33.0335 1035.31 33.621C1035.79 34.2093 1036.14 34.8793 1036.35 35.6315C1036.56 36.3846 1036.67 37.1604 1036.67 37.9598C1036.67 39.794 1036.41 41.4696 1035.89 42.9864C1035.38 44.5029 1034.68 45.8029 1033.81 46.8841C1032.94 47.9661 1031.93 48.8069 1030.78 49.4061C1029.63 50.006 1028.41 50.3059 1027.14 50.3059C1026.04 50.3059 1025.1 50.1233 1024.32 49.759C1023.55 49.3946 1022.91 48.9185 1022.4 48.3304C1021.89 47.743 1021.52 47.0782 1021.29 46.3372C1021.05 45.5961 1020.94 44.8502 1020.94 44.0974ZM1025.42 43.5129C1025.42 45.6424 1026.18 46.7072 1027.71 46.7072C1028.27 46.7072 1028.83 46.4594 1029.37 45.9622C1029.91 45.465 1030.39 44.8146 1030.81 44.01C1031.24 43.2052 1031.57 42.294 1031.82 41.2766C1032.07 40.2593 1032.19 39.2416 1032.19 38.2243C1032.19 37.278 1032.03 36.5505 1031.71 36.0418C1031.4 35.5329 1030.8 35.2784 1029.93 35.2784C1029.37 35.2784 1028.81 35.5153 1028.27 35.9883C1027.73 36.4616 1027.25 37.083 1026.83 37.8516C1026.4 38.6211 1026.06 39.5024 1025.8 40.4962C1025.55 41.4903 1025.42 42.4955 1025.42 43.5129Z" fill="#0BA3F7"/>
<path d="M1080.65 45.6847C1081.12 45.9527 1081.73 46.19 1082.47 46.3973C1083.21 46.6046 1083.99 46.7075 1084.82 46.7075C1085.64 46.7075 1086.27 46.5477 1086.7 46.2282C1087.14 45.9084 1087.37 45.4165 1087.39 44.7525C1087.39 44.2786 1087.25 43.8703 1086.97 43.5264C1086.69 43.1831 1086.33 42.8573 1085.89 42.5493C1085.46 42.2411 1084.99 41.9279 1084.5 41.6105C1084 41.293 1083.54 40.9287 1083.11 40.5166C1082.67 40.1057 1082.31 39.6172 1082.03 39.053C1081.75 38.4883 1081.61 37.8065 1081.61 37.0068C1081.61 36.231 1081.76 35.5139 1082.06 34.8554C1082.37 34.1972 1082.8 33.6328 1083.35 33.1621C1083.9 32.6919 1084.57 32.3279 1085.36 32.0685C1086.15 31.81 1087.04 31.6803 1088.03 31.6803C1089.39 31.6803 1090.52 31.781 1091.41 31.9802C1092.31 32.1804 1093.01 32.4331 1093.53 32.7388L1092.33 36.0545C1091.86 35.8328 1091.29 35.6482 1090.62 35.5004C1089.95 35.3526 1089.25 35.2784 1088.52 35.2784C1087.77 35.2784 1087.17 35.4092 1086.74 35.6695C1086.3 35.9308 1086.09 36.3461 1086.09 36.9154C1086.09 37.295 1086.23 37.6328 1086.51 37.9293C1086.79 38.2258 1087.15 38.5286 1087.58 38.8371C1088.02 39.1456 1088.48 39.4582 1088.98 39.7756C1089.47 40.0931 1089.94 40.4758 1090.37 40.9221C1090.81 41.3692 1091.17 41.8805 1091.45 42.4567C1091.73 43.0333 1091.87 43.7208 1091.87 44.5202C1091.87 46.4723 1091.24 47.9241 1089.97 48.8765C1088.7 49.8289 1087 50.3053 1084.89 50.3053C1083.69 50.3053 1082.59 50.1932 1081.59 49.97C1080.59 49.7469 1079.82 49.4709 1079.28 49.141L1080.65 45.6847Z" fill="#F78B0B"/>
<path d="M1095.12 32.1746H1097.41L1098.11 28.8589L1102.74 27.5537L1101.75 32.1746H1105.87L1105.06 35.7727H1100.97L1099.24 43.7964C1099.1 44.4359 1099.03 44.9561 1099.03 45.3587C1099.03 45.8794 1099.15 46.2342 1099.38 46.4237C1099.62 46.6135 1099.97 46.7075 1100.44 46.7075C1100.89 46.7075 1101.3 46.6581 1101.66 46.558C1102.02 46.4588 1102.41 46.2969 1102.81 46.0726V49.3179C1102.55 49.4588 1102.24 49.5945 1101.87 49.7236C1101.51 49.8524 1101.11 49.958 1100.69 50.0411C1100.27 50.1233 1099.83 50.1877 1099.38 50.2352C1098.94 50.282 1098.53 50.3059 1098.15 50.3059C1096.95 50.3059 1096.03 50.0284 1095.38 49.4749C1094.73 48.9211 1094.41 48.0786 1094.41 46.9462C1094.41 46.711 1094.43 46.4634 1094.46 46.204C1094.5 45.945 1094.54 45.6735 1094.59 45.3903L1096.63 35.7727H1094.27L1095.12 32.1746Z" fill="#F78B0B"/>
<path d="M1119.38 42.7566C1119.2 43.6506 1119.06 44.5555 1118.98 45.4728C1118.9 46.3898 1118.86 47.2602 1118.86 48.0829C1118.86 48.4124 1118.86 48.7238 1118.87 49.0177C1118.88 49.3119 1118.9 49.5882 1118.93 49.847H1115.72L1115.22 46.8131H1115.08C1114.82 47.2366 1114.49 47.6544 1114.08 48.0653C1113.66 48.4771 1113.21 48.8532 1112.72 49.194C1112.22 49.5356 1111.7 49.8059 1111.15 50.0054C1110.6 50.2047 1110.03 50.3053 1109.44 50.3053C1107.89 50.3053 1106.74 49.7995 1106 48.7885C1105.26 47.7775 1104.89 46.4249 1104.89 44.7321C1104.89 43.0157 1105.1 41.3695 1105.54 39.7935C1105.97 38.2183 1106.65 36.8303 1107.57 35.6309C1108.49 34.4319 1109.64 33.4738 1111.04 32.7563C1112.44 32.0392 1114.11 31.6803 1116.03 31.6803C1116.86 31.6803 1117.76 31.7571 1118.73 31.9098C1119.71 32.0631 1120.66 32.2684 1121.57 32.5269L1119.38 42.7566ZM1111.1 46.7075C1111.52 46.7075 1111.92 46.6187 1112.29 46.4413C1112.67 46.2639 1113.02 46.0335 1113.34 45.7491C1113.65 45.4653 1113.94 45.1577 1114.18 44.8267C1114.43 44.4954 1114.65 44.1875 1114.83 43.904L1116.6 35.6335C1116.34 35.5156 1116.04 35.4268 1115.7 35.3673C1115.36 35.3083 1115.02 35.2784 1114.69 35.2784C1113.85 35.2784 1113.09 35.5332 1112.44 36.0418C1111.78 36.5505 1111.22 37.2127 1110.76 38.0294C1110.3 38.8463 1109.95 39.7687 1109.72 40.7979C1109.48 41.8273 1109.37 42.8625 1109.37 43.9037C1109.37 44.6608 1109.49 45.3172 1109.74 45.8736C1109.98 46.4298 1110.44 46.7075 1111.1 46.7075Z" fill="#F78B0B"/>
<path d="M1128.63 32.1746L1128.66 35.3416H1128.8C1129.32 34.3838 1129.95 33.5692 1130.69 32.8984C1131.43 32.2281 1132.37 31.8925 1133.49 31.8925C1133.99 31.8925 1134.58 31.9886 1135.26 32.1798L1134.16 36.0197C1133.93 35.9492 1133.71 35.8909 1133.49 35.8434C1133.28 35.7965 1133.06 35.773 1132.82 35.773C1131.86 35.773 1130.97 36.0832 1130.16 36.7032C1129.35 37.3231 1128.73 38.0426 1128.31 38.8615L1126.02 49.8122H1121.68L1125.42 32.1749H1128.63V32.1746Z" fill="#F78B0B"/>
<path d="M1081.35 32.9004L1078.97 30.4491L1059.52 30.4505L1057.38 36.8594L1061.74 32.8972L1077.27 32.8984L1068.48 39.4499L1072.95 52.8915L1071.4 40.301L1081.35 32.9004Z" fill="#F78B0B"/>
<path d="M1060.78 14.8913L1057.7 16.3779L1051.57 34.8387L1056.98 38.8857L1054.59 33.4959L1059.49 18.766L1062.93 29.168L1077.1 29.166L1064.66 26.6638L1060.78 14.8913Z" fill="#0BA3F7"/>
<path d="M1070.75 58.1056L1072.33 55.0751L1066.22 36.6077L1059.46 36.593L1064.6 39.4909L1069.47 54.228L1060.49 47.9451L1049.13 56.4093L1060.6 50.9871L1070.75 58.1056Z" fill="#F78B0B"/>
<path d="M1043.49 55.9539L1046.86 56.4968L1062.46 44.8724L1060.34 38.4575L1059.21 44.2415L1046.76 53.5155L1049.89 43.0137L1038.28 34.9048L1047.04 44.0762L1043.49 55.9539Z" fill="#F78B0B"/>
<path d="M1036.93 29.4095L1037.48 32.7813L1053.46 43.8823L1058.87 39.8383L1053.02 40.6017L1040.28 31.7421L1051.23 31.3761L1055.23 17.788L1049.32 29.0093L1036.93 29.4095Z" fill="#F78B0B"/>
<defs>
<filter id="filter0_d" x="79" y="17.8913" width="426" height="324.81" filterUnits="userSpaceOnUse" color-interpolation-filters="sRGB">
<feFlood flood-opacity="0" result="BackgroundImageFix"/>
<feColorMatrix in="SourceAlpha" type="matrix" values="0 0 0 0 0 0 0 0 0 0 0 0 0 0 0 0 0 0 127 0" result="hardAlpha"/>
<feOffset dy="14"/>
<feGaussianBlur stdDeviation="2"/>
<feColorMatrix type="matrix" values="0 0 0 0 0 0 0 0 0 0 0 0 0 0 0 0 0 0 0.25 0"/>
<feBlend mode="normal" in2="BackgroundImageFix" result="effect1_dropShadow"/>
<feBlend mode="normal" in="SourceGraphic" in2="effect1_dropShadow" result="shape"/>
</filter>
<filter id="filter1_d" x="85" y="23.8913" width="414" height="320.35" filterUnits="userSpaceOnUse" color-interpolation-filters="sRGB">
<feFlood flood-opacity="0" result="BackgroundImageFix"/>
<feColorMatrix in="SourceAlpha" type="matrix" values="0 0 0 0 0 0 0 0 0 0 0 0 0 0 0 0 0 0 127 0" result="hardAlpha"/>
<feOffset dy="14"/>
<feGaussianBlur stdDeviation="2"/>
<feColorMatrix type="matrix" values="0 0 0 0 0 0 0 0 0 0 0 0 0 0 0 0 0 0 0.25 0"/>
<feBlend mode="normal" in2="BackgroundImageFix" result="effect1_dropShadow"/>
<feBlend mode="normal" in="SourceGraphic" in2="effect1_dropShadow" result="shape"/>
</filter>
<filter id="filter2_d" x="102.004" y="61.0038" width="391.996" height="381.887" filterUnits="userSpaceOnUse" color-interpolation-filters="sRGB">
<feFlood flood-opacity="0" result="BackgroundImageFix"/>
<feColorMatrix in="SourceAlpha" type="matrix" values="0 0 0 0 0 0 0 0 0 0 0 0 0 0 0 0 0 0 127 0" result="hardAlpha"/>
<feOffset dy="14"/>
<feGaussianBlur stdDeviation="2"/>
<feColorMatrix type="matrix" values="0 0 0 0 0 0 0 0 0 0 0 0 0 0 0 0 0 0 0.25 0"/>
<feBlend mode="normal" in2="BackgroundImageFix" result="effect1_dropShadow"/>
<feBlend mode="normal" in="SourceGraphic" in2="effect1_dropShadow" result="shape"/>
</filter>
<filter id="filter3_d" x="98.5627" y="33.8912" width="381.279" height="215.146" filterUnits="userSpaceOnUse" color-interpolation-filters="sRGB">
<feFlood flood-opacity="0" result="BackgroundImageFix"/>
<feColorMatrix in="SourceAlpha" type="matrix" values="0 0 0 0 0 0 0 0 0 0 0 0 0 0 0 0 0 0 127 0" result="hardAlpha"/>
<feOffset dy="14"/>
<feGaussianBlur stdDeviation="2"/>
<feColorMatrix type="matrix" values="0 0 0 0 0 0 0 0 0 0 0 0 0 0 0 0 0 0 0.25 0"/>
<feBlend mode="normal" in2="BackgroundImageFix" result="effect1_dropShadow"/>
<feBlend mode="normal" in="SourceGraphic" in2="effect1_dropShadow" result="shape"/>
</filter>
<filter id="filter4_d" x="99" y="37.8913" width="386" height="396" filterUnits="userSpaceOnUse" color-interpolation-filters="sRGB">
<feFlood flood-opacity="0" result="BackgroundImageFix"/>
<feColorMatrix in="SourceAlpha" type="matrix" values="0 0 0 0 0 0 0 0 0 0 0 0 0 0 0 0 0 0 127 0" result="hardAlpha"/>
<feOffset dy="14"/>
<feGaussianBlur stdDeviation="2"/>
<feColorMatrix type="matrix" values="0 0 0 0 0 0 0 0 0 0 0 0 0 0 0 0 0 0 0.25 0"/>
<feBlend mode="normal" in2="BackgroundImageFix" result="effect1_dropShadow"/>
<feBlend mode="normal" in="SourceGraphic" in2="effect1_dropShadow" result="shape"/>
</filter>
<filter id="filter5_d" x="122.569" y="107.55" width="132.105" height="167.018" filterUnits="userSpaceOnUse" color-interpolation-filters="sRGB">
<feFlood flood-opacity="0" result="BackgroundImageFix"/>
<feColorMatrix in="SourceAlpha" type="matrix" values="0 0 0 0 0 0 0 0 0 0 0 0 0 0 0 0 0 0 127 0" result="hardAlpha"/>
<feOffset dy="2"/>
<feGaussianBlur stdDeviation="1.5"/>
<feColorMatrix type="matrix" values="0 0 0 0 0 0 0 0 0 0 0 0 0 0 0 0 0 0 0.4 0"/>
<feBlend mode="normal" in2="BackgroundImageFix" result="effect1_dropShadow"/>
<feBlend mode="normal" in="SourceGraphic" in2="effect1_dropShadow" result="shape"/>
</filter>
<filter id="filter6_d" x="210.572" y="65.816" width="219.689" height="235.859" filterUnits="userSpaceOnUse" color-interpolation-filters="sRGB">
<feFlood flood-opacity="0" result="BackgroundImageFix"/>
<feColorMatrix in="SourceAlpha" type="matrix" values="0 0 0 0 0 0 0 0 0 0 0 0 0 0 0 0 0 0 127 0" result="hardAlpha"/>
<feOffset dy="2"/>
<feGaussianBlur stdDeviation="1.5"/>
<feColorMatrix type="matrix" values="0 0 0 0 0 0 0 0 0 0 0 0 0 0 0 0 0 0 0.4 0"/>
<feBlend mode="normal" in2="BackgroundImageFix" result="effect1_dropShadow"/>
<feBlend mode="normal" in="SourceGraphic" in2="effect1_dropShadow" result="shape"/>
</filter>
<filter id="filter7_d" x="127.889" y="110.862" width="123.465" height="158.393" filterUnits="userSpaceOnUse" color-interpolation-filters="sRGB">
<feFlood flood-opacity="0" result="BackgroundImageFix"/>
<feColorMatrix in="SourceAlpha" type="matrix" values="0 0 0 0 0 0 0 0 0 0 0 0 0 0 0 0 0 0 127 0" result="hardAlpha"/>
<feOffset dx="1" dy="1"/>
<feGaussianBlur stdDeviation="0.5"/>
<feColorMatrix type="matrix" values="0 0 0 0 0 0 0 0 0 0 0 0 0 0 0 0 0 0 0.25 0"/>
<feBlend mode="normal" in2="BackgroundImageFix" result="effect1_dropShadow"/>
<feBlend mode="normal" in="SourceGraphic" in2="effect1_dropShadow" result="shape"/>
</filter>
<filter id="filter8_d" x="215.891" y="69.128" width="211.052" height="227.235" filterUnits="userSpaceOnUse" color-interpolation-filters="sRGB">
<feFlood flood-opacity="0" result="BackgroundImageFix"/>
<feColorMatrix in="SourceAlpha" type="matrix" values="0 0 0 0 0 0 0 0 0 0 0 0 0 0 0 0 0 0 127 0" result="hardAlpha"/>
<feOffset dx="1" dy="1"/>
<feGaussianBlur stdDeviation="0.5"/>
<feColorMatrix type="matrix" values="0 0 0 0 0 0 0 0 0 0 0 0 0 0 0 0 0 0 0.25 0"/>
<feBlend mode="normal" in2="BackgroundImageFix" result="effect1_dropShadow"/>
<feBlend mode="normal" in="SourceGraphic" in2="effect1_dropShadow" result="shape"/>
</filter>
<linearGradient id="paint0_linear" x1="720" y1="-0.108704" x2="720" y2="663.891" gradientUnits="userSpaceOnUse">
<stop stop-color="#D1D1D1"/>
<stop offset="0.484375" stop-color="white"/>
<stop offset="1" stop-color="#CECECE"/>
</linearGradient>
<linearGradient id="paint1_linear" x1="249.84" y1="165.775" x2="1371.91" y2="259.795" gradientUnits="userSpaceOnUse">
<stop stop-color="#EC008C"/>
<stop offset="0.553005" stop-color="white"/>
</linearGradient>
<linearGradient id="paint2_linear" x1="243.84" y1="146.775" x2="1365.91" y2="240.795" gradientUnits="userSpaceOnUse">
<stop stop-color="#00AEEF"/>
<stop offset="0.553005" stop-color="white"/>
</linearGradient>
<linearGradient id="paint3_linear" x1="241.84" y1="127.775" x2="1363.91" y2="221.795" gradientUnits="userSpaceOnUse">
<stop stop-color="#FFDD00"/>
<stop offset="0.553005" stop-color="white"/>
</linearGradient>
<linearGradient id="paint4_linear" x1="241.84" y1="127.775" x2="1363.91" y2="221.795" gradientUnits="userSpaceOnUse">
<stop stop-color="#FFDD00"/>
<stop offset="0.553005" stop-color="white"/>
</linearGradient>
<linearGradient id="paint5_linear" x1="232.599" y1="111.883" x2="1354.67" y2="205.904" gradientUnits="userSpaceOnUse">
<stop stop-color="#5C006A"/>
<stop offset="0.553005" stop-color="white"/>
</linearGradient>
<linearGradient id="paint6_linear" x1="292" y1="37.8913" x2="292" y2="415.891" gradientUnits="userSpaceOnUse">
<stop stop-color="white"/>
<stop offset="1" stop-color="#E9E9E9"/>
</linearGradient>
<linearGradient id="paint7_linear" x1="292" y1="37.8913" x2="292" y2="415.891" gradientUnits="userSpaceOnUse">
<stop stop-color="white"/>
<stop offset="1" stop-color="#E9E9E9"/>
</linearGradient>
<linearGradient id="paint8_linear" x1="292" y1="37.8913" x2="292" y2="415.891" gradientUnits="userSpaceOnUse">
<stop stop-color="white"/>
<stop offset="1" stop-color="#E9E9E9"/>
</linearGradient>
<linearGradient id="paint9_linear" x1="292" y1="37.8913" x2="292" y2="415.891" gradientUnits="userSpaceOnUse">
<stop stop-color="white"/>
<stop offset="1" stop-color="#E9E9E9"/>
</linearGradient>
<linearGradient id="paint10_linear" x1="292" y1="37.8913" x2="292" y2="415.891" gradientUnits="userSpaceOnUse">
<stop stop-color="white"/>
<stop offset="1" stop-color="#E9E9E9"/>
</linearGradient>
<linearGradient id="paint11_linear" x1="292" y1="37.8913" x2="292" y2="415.891" gradientUnits="userSpaceOnUse">
<stop stop-color="#E9E9E9"/>
<stop offset="1" stop-color="white"/>
</linearGradient>
</defs>
</svg>
