<svg width="50" height="50" viewBox="0 0 50 50" fill="none" xmlns="http://www.w3.org/2000/svg">
<path d="M50 25.0003C50 11.192 38.8071 0 25.0004 0C11.193 0 0 11.192 0 25.0003C0 38.8065 11.193 49.9994 25.0004 49.9994C38.8071 49.9994 50 38.8065 50 25.0003Z" fill="#FFDD00"/>
<mask id="mask0" style="mask-type:alpha" maskUnits="userSpaceOnUse" x="0" y="0" width="50" height="50">
<path d="M50 25.0003C50 11.192 38.8071 0 25.0004 0C11.193 0 0 11.192 0 25.0003C0 38.8065 11.193 49.9994 25.0004 49.9994C38.8071 49.9994 50 38.8065 50 25.0003Z" fill="#25B7D3"/>
</mask>
<g mask="url(#mask0)">
<path d="M58 29L40 10L38.5 9.5H36L29.5 14L15 30L11 34.5L8 41L29.5 58.5L58 29Z" fill="url(#paint0_linear)"/>
<path d="M41 13.1517C40.9987 11.7731 40.4598 10.4777 39.4823 9.50411C37.4662 7.49599 34.1887 7.49876 32.1749 9.51166L11.3724 30.3625C10.6957 31.0375 10.1792 31.8731 9.87862 32.7792L9.8592 32.8381L8 41L16.1984 39.1676L16.2595 39.1475C17.1674 38.8474 18.0049 38.3322 18.6833 37.6552L39.4886 16.8019C40.4643 15.8265 41.0013 14.5302 41 13.1517ZM12.5464 37.3438L11.677 36.4754L12.3048 33.7191L15.3142 36.7252L12.5464 37.3438Z" fill="#32023A"/>
</g>
<defs>
<linearGradient id="paint0_linear" x1="18" y1="17" x2="42" y2="39" gradientUnits="userSpaceOnUse">
<stop stop-opacity="0"/>
<stop offset="1" stop-opacity="0.2"/>
</linearGradient>
</defs>
</svg>
