<svg width="50" height="50" viewBox="0 0 50 50" fill="none" xmlns="http://www.w3.org/2000/svg">
<path d="M50 25.0003C50 11.192 38.8071 0 25.0004 0C11.193 0 0 11.192 0 25.0003C0 38.8065 11.193 49.9994 25.0004 49.9994C38.8071 49.9994 50 38.8065 50 25.0003Z" fill="#FFDD00"/>
<mask id="mask0" style="mask-type:alpha" maskUnits="userSpaceOnUse" x="0" y="0" width="50" height="50">
<path d="M50 25.0003C50 11.192 38.8071 0 25.0004 0C11.193 0 0 11.192 0 25.0003C0 38.8065 11.193 49.9994 25.0004 49.9994C38.8071 49.9994 50 38.8065 50 25.0003Z" fill="#25B7D3"/>
</mask>
<g mask="url(#mask0)">
<path d="M55.2508 31.6059C55.2315 31.6989 55.2122 31.7919 55.1912 31.8849C54.3179 35.8688 53.7993 39.9231 53.7993 44.0031V51.8897C53.7993 53.0972 52.826 54.0766 51.6263 54.0766H43.7902C43.2045 54.0766 42.6202 54.087 42.0361 54.1096L22.0208 33.9638C21.6781 33.6144 21.5067 32.9858 21.5067 32.0768C21.5067 28.0916 22.5172 25.2236 24.5409 23.4762C24.7437 23.2872 25.155 22.9542 25.7705 22.4787C25.6006 22.3317 16.0819 12.714 15.9716 12.6166C15.5199 12.2265 15.2965 11.6925 15.2965 11.0161C15.2965 9.80273 16.1444 8.6148 17.8435 7.45221C19.541 6.28985 21.696 5.70776 24.3056 5.70776C27.5798 5.70776 30.1596 6.55519 32.0435 8.2457L55.2508 31.6059Z" fill="url(#paint0_linear)"/>
<path d="M40.8673 54.0205C38.3168 54.1878 35.7814 54.5342 33.2718 55.0228L21.6773 43.8282C21.0769 43.2646 20.7759 42.6086 20.7759 41.8573C20.7759 41.075 21.0769 40.4102 21.6773 39.8629C22.2778 39.3154 23.0196 39.0411 23.9027 39.0411C24.8086 39.0411 25.5929 39.3155 26.2541 39.8629L40.8673 54.0205Z" fill="url(#paint1_linear)"/>
<path d="M15.2965 10.9986C15.2965 9.78907 16.1383 8.60475 17.8226 7.44557C19.506 6.28735 21.642 5.70776 24.2301 5.70776C27.4761 5.70776 30.0337 6.55141 31.9015 8.23785C33.7686 9.92527 34.7029 12.0723 34.7029 14.6805C34.7029 15.759 34.5474 16.7932 34.2366 17.7846C33.9257 18.7756 33.4778 19.6804 32.8914 20.4972C32.3051 21.3148 31.7784 21.993 31.3127 22.5319C30.8471 23.0714 30.26 23.6625 29.5528 24.3056C28.8456 24.9494 28.4234 25.3406 28.2882 25.4794C27.267 26.4184 26.6379 27.3751 26.3994 28.3486C26.1609 29.3227 26.0426 30.8005 26.0426 32.7827C26.0426 33.8613 25.2492 34.4001 23.6639 34.4001C22.8705 34.4001 22.3043 34.2262 21.9643 33.8776C21.6245 33.5286 21.4544 32.9017 21.4544 31.9954C21.4544 28.0227 22.4572 25.1638 24.4628 23.4212C24.685 23.2125 25.1587 22.8294 25.8836 22.2718C26.6078 21.7143 27.1474 21.2521 27.5026 20.8861C27.857 20.5201 28.2709 20.0317 28.7447 19.4222C29.2183 18.8124 29.5646 18.1506 29.7844 17.4357C30.0043 16.7217 30.1147 15.9635 30.1147 15.1614C30.1147 13.4889 29.579 12.1903 28.5086 11.2668C27.4381 10.3433 25.9552 9.88104 24.0599 9.88104C22.9597 9.88104 22.0236 10.0497 21.2503 10.3873C20.4771 10.7247 19.9359 11.1054 19.6265 11.5309C19.3172 11.9563 18.9734 12.3378 18.5956 12.6752C18.217 13.0127 17.8223 13.1806 17.4098 13.1806C16.8943 13.1806 16.4126 12.9858 15.9664 12.5953C15.5197 12.2059 15.2965 11.6737 15.2965 10.9986ZM20.6811 41.6514C20.6811 40.8544 20.9727 40.1769 21.5566 39.6194C22.1398 39.0619 22.8615 38.7822 23.7201 38.7822C24.6014 38.7822 25.3633 39.0618 26.0062 39.6194C26.6489 40.1769 26.9703 40.8545 26.9703 41.6514C26.9703 42.4169 26.6489 43.086 26.0062 43.6599C25.3633 44.2339 24.6014 44.5205 23.7201 44.5205C22.8615 44.5205 22.1398 44.2339 21.5566 43.6599C20.9727 43.0858 20.6811 42.4169 20.6811 41.6514Z" fill="#32023A"/>
</g>
<defs>
<linearGradient id="paint0_linear" x1="42.8856" y1="37.0626" x2="7.42094" y2="1.82512" gradientUnits="userSpaceOnUse">
<stop stop-opacity="0.19"/>
<stop offset="1" stop-opacity="0"/>
</linearGradient>
<linearGradient id="paint1_linear" x1="31.4585" y1="49.0811" x2="22.232" y2="39.525" gradientUnits="userSpaceOnUse">
<stop stop-opacity="0.2"/>
<stop offset="1" stop-opacity="0"/>
</linearGradient>
</defs>
</svg>
